<svg width="635" height="397" viewBox="0 0 635 397" fill="none" xmlns="http://www.w3.org/2000/svg">
<g clip-path="url(#clip0_11_311)">
<path d="M605.148 396.086C568.831 396.086 39.8048 396.215 39.4984 395.269L39.4473 395.15C39.4473 395.15 39.3962 395.033 39.3962 394.975C39.1943 394.501 -42.1156 261.579 84.2895 169.045C133.748 132.839 81.1956 108.938 120.524 68.6316C165.723 22.3132 215.051 73.5517 265.31 52.5488C274.19 48.8416 283.102 42.8738 292.021 33.7166C297.042 28.5679 302.546 24.0635 308.437 20.1765C309.34 19.5785 310.252 18.9926 311.173 18.4262C314.7 16.253 318.359 14.2864 322.126 12.5191C324.656 11.3328 327.234 10.2365 329.861 9.23012C334.028 7.63059 338.308 6.24984 342.682 5.083C348.891 3.42513 355.284 2.19023 361.802 1.35644C364.646 0.989369 367.513 0.702523 370.4 0.486173C426.56 -3.70713 489.759 19.8872 522.374 54.3719C528.941 61.317 558.798 97.2481 535.263 146.637C520.401 177.818 582.659 207.601 604.781 243.209C661.026 333.741 605.656 394.909 605.146 396.091L605.148 396.086Z" fill="#EBF3FA" fill-opacity="0.5"/>
<g opacity="0.8">
<path d="M279.558 155.599C279.558 160.49 279.118 165.282 278.272 169.934C276.238 181.097 271.877 191.448 265.704 200.469C251.363 221.431 227.251 235.187 199.924 235.187C167.419 235.187 139.459 215.725 127.086 187.821C125.454 184.146 124.092 180.322 123.031 176.376C121.239 169.755 120.285 162.788 120.285 155.602C120.285 149.79 120.908 144.121 122.093 138.666C122.105 138.603 122.119 138.542 122.131 138.479C125.439 123.392 133.031 109.913 143.567 99.3703C146.554 96.3779 149.78 93.6213 153.216 91.132C154.853 89.9457 156.541 88.8178 158.268 87.7579C170.384 80.3072 184.649 76.0094 199.922 76.0094C201.948 76.0094 203.955 76.0847 205.939 76.2354C208.744 76.4421 211.505 76.7946 214.219 77.288C225.644 79.3567 236.214 83.8636 245.382 90.2472H245.387C251.098 94.2217 256.264 98.923 260.747 104.222C263.101 107.006 265.271 109.952 267.229 113.044C268.447 114.969 269.588 116.946 270.646 118.98C273.186 123.864 275.226 129.044 276.715 134.456C278.566 141.189 279.556 148.282 279.556 155.604L279.558 155.599Z" fill="#D7E5FF"/>
<path d="M172.867 119.972C169.688 125.002 174.193 133.736 164.66 131.354C155.126 128.971 149.3 127.912 148.77 133.204C148.237 138.501 155.921 138.501 155.921 144.058C155.921 149.615 152.477 151.455 147.182 148.815C141.882 146.175 140.362 142.336 134.203 144.719C128.047 147.101 124.471 145.514 123.08 140.749C122.834 139.91 122.491 139.232 122.09 138.666C122.102 138.603 122.117 138.542 122.129 138.479C125.437 123.392 133.028 109.913 143.565 99.3703C146.552 96.3779 149.777 93.6213 153.214 91.132C154.851 89.9457 156.539 88.8178 158.266 87.7579C160.749 87.8503 163.717 88.7911 166.246 91.9196C171.807 98.8039 175.513 95.3618 174.19 103.301C172.865 111.24 174.986 112.3 179.485 112.035C183.985 111.77 189.285 111.77 189.813 115.213C190.341 118.655 176.041 114.948 172.862 119.977L172.867 119.972Z" fill="#AEC3FF"/>
<path d="M173.424 156.727C173.424 156.727 168.618 162.311 164.476 159.105C160.333 155.898 161.586 153.891 155.52 155.901C149.454 157.911 146.785 154.578 143.677 157.104C140.568 159.63 143.091 159.946 140.941 165.301C138.79 170.656 134.347 171.515 137.781 176.863C141.215 182.208 147.605 179.459 150.971 182.286C154.338 185.113 153.238 187.882 157.441 189.032C161.642 190.184 165.658 186.093 165.74 191.164C165.823 196.234 164.201 201.189 169.425 205.905C174.648 210.62 173.67 211.685 179.04 213.982C184.411 216.28 190.83 214.208 190.015 210.983C189.2 207.757 182.28 207.108 182.142 203.466C182.005 199.825 185.685 200.129 184.211 195.447C182.735 190.762 186.855 188.237 185.464 185.21C184.073 182.181 176.136 181.146 177.06 178.095C177.985 175.044 185.162 177.631 185.557 171.182C185.948 164.732 181.589 162.435 182.232 156.144C182.874 149.85 174.161 152.862 173.427 156.727H173.424Z" fill="#AEC3FF"/>
<path d="M279.558 155.599C279.558 160.49 279.118 165.282 278.272 169.934C276.238 181.097 271.877 191.448 265.704 200.469C263.597 201.159 261.45 201.145 259.336 200.299C249.405 196.329 256.753 185.609 260.727 180.249C264.699 174.889 254.571 177.271 247.221 172.309C239.873 167.348 248.016 154.046 240.469 156.232C232.921 158.414 223.785 161.193 219.414 153.849C215.046 146.505 223.386 145.314 219.614 139.159C215.839 133.007 221.798 129.433 229.346 128.838C236.893 128.242 235.901 122.882 245.236 122.09C254.571 121.295 254.372 133.206 264.702 132.411C275.029 131.616 274.565 133.998 274.565 133.998C275.307 133.979 276.031 134.135 276.722 134.451C278.573 141.184 279.563 148.278 279.563 155.599H279.558Z" fill="#AEC3FF"/>
<path d="M270.649 118.976C262.06 123.152 258.614 111.795 251.27 115.208C243.869 118.65 245.165 112.03 239.342 107.796C233.515 103.564 221.864 111.238 222.392 104.619C222.919 98.0042 231.659 99.8541 233.514 94.562C235.37 89.2699 243.842 90.5924 243.842 90.5924C244.324 90.41 244.839 90.2909 245.384 90.2423C245.384 90.2423 245.384 90.2374 245.389 90.2423C251.1 94.2168 256.266 98.9182 260.749 104.218C263.104 107.001 265.273 109.947 267.231 113.039C268.45 114.965 269.591 116.941 270.649 118.976Z" fill="#AEC3FF"/>
<path d="M198.292 96.1518C198.292 96.1518 202.794 89.6589 195.643 87.7458C188.492 85.8302 188.626 88.3365 183.063 87.7458C177.503 87.1551 175.316 91.4553 179.488 96.1518C183.659 100.851 187.035 109.865 190.81 105.059C194.585 100.253 193.856 96.6137 198.292 96.1518Z" fill="#AEC3FF"/>
</g>
<path d="M295.753 241.366L283.555 386.314C283.555 386.314 282.278 395.099 288.816 395.116C299.569 395.143 342.334 395.116 342.334 395.116C342.334 395.116 334.242 393.288 334.339 389.172C334.453 384.32 348.595 239.995 348.595 239.995L295.753 241.366Z" fill="#7599EA"/>
<path d="M346.359 392.544C344.246 392.551 302.843 392.62 292.372 392.486C287.809 392.43 287.009 388.431 286.97 385.842C286.95 384.602 287.108 383.684 287.108 383.684L287.424 379.916L288.232 370.314L288.947 361.83L289.864 350.93L290.638 341.729L299.304 238.734L352.148 237.363C352.148 237.363 346.192 297.763 341.979 341.729C341.509 346.627 341.062 351.323 340.648 355.709C340.515 357.109 340.386 358.478 340.259 359.81C339.868 363.969 339.513 367.79 339.201 371.162C339.038 372.939 338.887 374.592 338.749 376.104C338.211 382.033 337.897 385.82 337.893 386.54C337.893 386.96 337.927 387.349 337.995 387.714C338.863 392.333 345.564 392.542 346.357 392.542L346.359 392.544Z" fill="#90AFF4"/>
<path d="M167.421 162.491L197.132 281.766L201.199 298.099L215.036 353.655H472.125L421.122 162.491H167.421Z" fill="#AEC3FF"/>
<path d="M167.419 162.491L163.301 163.862L209.564 357.804L215.039 353.655L167.419 162.491Z" fill="#90AFF4"/>
<path d="M209.564 357.804H465.069L472.125 353.655H215.039L209.564 357.804Z" fill="#7599EA"/>
<path d="M299.289 395.172H354.61V392.544H299.289V395.172Z" fill="#AEC3FF"/>
<path d="M340.546 357.804L340.262 359.812L288.234 370.316L288.949 361.832L289.29 357.804H340.546Z" fill="#5888DD"/>
<path opacity="0.4" d="M346.359 392.544C344.246 392.551 302.843 392.62 292.372 392.486C287.809 392.43 287.009 388.431 286.97 385.842L338.751 376.106C338.214 382.035 337.9 385.823 337.895 386.542C337.895 386.963 337.929 387.352 337.997 387.716C338.866 392.335 345.567 392.544 346.359 392.544Z" fill="#5888DD"/>
<path d="M167.419 162.491H421.122L462.284 316.126H205.689L167.419 162.491Z" fill="#C2D5FF"/>
<path d="M450.319 309.468H212.777L204.288 275.674L201.004 262.596L199.666 257.265L190.942 222.534L190.489 220.726L185.878 202.368L183.815 194.154L182.054 187.145L177.929 170.72H412.044L416.576 187.145L418.509 194.154L420.774 202.368L435.701 256.482V256.484L436.966 261.069L437.554 263.198L447.86 300.556L450.319 309.468Z" fill="#739AF0"/>
<path d="M416.576 187.148H182.054L177.929 170.72H412.047L416.576 187.148Z" fill="#607CF4"/>
<path d="M187.614 178.144C187.332 177.008 188.023 176.09 189.156 176.09C190.29 176.09 191.44 177.008 191.722 178.144C192.005 179.279 191.314 180.198 190.18 180.198C189.047 180.198 187.896 179.279 187.614 178.144Z" fill="#E9F3FE"/>
<path d="M194.442 178.144C194.16 177.008 194.85 176.09 195.984 176.09C197.117 176.09 198.268 177.008 198.55 178.144C198.832 179.279 198.141 180.198 197.008 180.198C195.874 180.198 194.724 179.279 194.442 178.144Z" fill="#E9F3FE"/>
<path d="M201.792 178.144C201.51 177.008 202.201 176.09 203.334 176.09C204.468 176.09 205.618 177.008 205.9 178.144C206.183 179.279 205.492 180.198 204.358 180.198C203.225 180.198 202.074 179.279 201.792 178.144Z" fill="#E9F3FE"/>
<path opacity="0.5" d="M302.077 316.126L215.124 354.102L205.689 316.126H302.077Z" fill="#90AFF4"/>
<path d="M226.468 122.695C222.277 124.263 219.573 127.885 219.573 131.876V220.48C219.573 238.607 228.183 255.585 242.616 265.919L294.697 299.275C298.158 301.495 302.865 301.495 306.341 299.275L358.419 265.919C372.852 255.585 381.463 238.607 381.463 220.48V132.112C381.463 128.001 378.588 124.302 374.224 122.807C310.96 101.159 285.598 100.581 226.468 122.695Z" fill="#F99746"/>
<path d="M374.224 122.807C343.429 112.269 321.615 106.741 300.518 106.376V300.938C302.563 300.938 304.594 300.384 306.338 299.273L358.416 265.916C372.85 255.582 381.46 238.605 381.46 220.478V132.11C381.46 128.001 378.585 124.302 374.222 122.807H374.224Z" fill="#F78248"/>
<path d="M305.82 185.208H293.975C283.353 185.208 274.708 176.571 274.708 165.953V163.651C274.708 153.032 283.35 144.393 293.975 144.393H305.82C316.444 144.393 325.089 153.03 325.089 163.651V165.953C325.089 176.568 316.447 185.208 305.82 185.208ZM293.975 152.094C287.6 152.094 282.414 157.277 282.414 163.651V165.953C282.414 172.324 287.6 177.507 293.975 177.507H305.82C312.198 177.507 317.383 172.324 317.383 165.953V163.651C317.383 157.277 312.198 152.094 305.82 152.094H293.975Z" fill="#FFDAA4"/>
<path d="M267.518 169.327H331.525C336.535 169.327 340.605 173.394 340.605 178.401V209.232C340.605 225.656 327.263 238.989 310.831 238.989H292.119C274.628 238.989 260.426 224.797 260.426 207.314V176.41C260.426 172.499 263.602 169.327 267.513 169.327H267.518Z" fill="#FFDAA4"/>
<path d="M303.978 200.089C309.427 198.179 312.294 192.216 310.383 186.771C308.472 181.326 302.506 178.461 297.058 180.371C291.609 182.281 288.742 188.243 290.653 193.688C292.564 199.133 298.53 201.999 303.978 200.089Z" fill="#F78248"/>
<path d="M300.518 195.106C301.763 195.106 302.782 196.125 302.782 197.37V214.782C302.782 216.027 301.763 217.045 300.518 217.045C299.272 217.045 298.253 216.027 298.253 214.782V197.37C298.253 196.125 299.272 195.106 300.518 195.106Z" fill="#F78248"/>
<path d="M419.38 69.514C418.232 69.9418 417.493 70.9337 417.493 72.0276V96.2782C417.493 101.24 419.849 105.885 423.8 108.715L438.053 117.845C438.999 118.453 440.288 118.453 441.239 117.845L455.493 108.715C459.443 105.885 461.8 101.24 461.8 96.2782V72.0932C461.8 70.9677 461.012 69.9564 459.82 69.5456C442.504 63.6215 435.562 63.4635 419.38 69.514Z" fill="#AEC3FF"/>
<path opacity="0.4" d="M459.822 69.5456C451.394 66.6626 445.423 65.1481 439.649 65.0484V118.3C440.208 118.3 440.765 118.149 441.242 117.845L455.495 108.715C459.445 105.885 461.802 101.24 461.802 96.2782V72.0908C461.802 70.9653 461.014 69.954 459.822 69.5456Z" fill="#5888DD"/>
<path d="M442.134 39.3587L447.731 40.0953L443.742 44.0868L444.773 49.6341L439.741 47.0768L434.781 49.7702L435.66 44.1962L431.564 40.314L437.138 39.4268L439.568 34.334L442.134 39.3587Z" fill="#F99746"/>
<path d="M442.134 135.739L447.731 136.476L443.742 140.467L444.773 146.014L439.741 143.457L434.781 146.151L435.66 140.577L431.564 136.694L437.138 135.807L439.568 130.714L442.134 135.739Z" fill="#F99746"/>
<path d="M400.924 63.0259L406.52 63.7625L402.531 67.754L403.56 73.3014L398.53 70.744L393.571 73.4375L394.449 67.8634L390.353 63.9813L395.928 63.094L398.355 58.0013L400.924 63.0259Z" fill="#F99746"/>
<path d="M483.919 63.0259L489.513 63.7625L485.527 67.754L486.556 73.3014L481.526 70.744L476.564 73.4375L477.444 67.8634L473.348 63.9813L478.923 63.094L481.351 58.0013L483.919 63.0259Z" fill="#F99746"/>
<path d="M400.924 112.359L406.52 113.093L402.531 117.084L403.56 122.632L398.53 120.074L393.571 122.768L394.449 117.194L390.353 113.312L395.928 112.424L398.355 107.334L400.924 112.359Z" fill="#F99746"/>
<path d="M483.919 112.359L489.513 113.093L485.527 117.084L486.556 122.632L481.526 120.074L476.564 122.768L477.444 117.194L473.348 113.312L478.923 112.424L481.351 107.334L483.919 112.359Z" fill="#F99746"/>
<path d="M418.789 45.7277L424.386 46.4642L420.397 50.4558L421.428 56.0006L416.396 53.4458L411.436 56.1368L412.314 50.5651L408.218 46.683L413.793 45.7957L416.223 40.703L418.789 45.7277Z" fill="#F99746"/>
<path d="M466.698 45.7277L472.295 46.4642L468.306 50.4558L469.337 56.0006L464.305 53.4458L459.345 56.1368L460.223 50.5651L456.127 46.683L461.702 45.7957L464.132 40.703L466.698 45.7277Z" fill="#F99746"/>
<path d="M418.789 129.545L424.386 130.282L420.397 134.273L421.428 139.821L416.396 137.263L411.436 139.957L412.314 134.383L408.218 130.5L413.793 129.613L416.223 124.52L418.789 129.545Z" fill="#F99746"/>
<path d="M466.698 129.545L472.295 130.282L468.306 134.273L469.337 139.821L464.305 137.263L459.345 139.957L460.223 134.383L456.127 130.5L461.702 129.613L464.132 124.52L466.698 129.545Z" fill="#F99746"/>
<path d="M394.33 88.9758L399.924 89.7099L395.937 93.7039L396.966 99.2488L391.936 96.6915L386.974 99.3849L387.855 93.8133L383.759 89.9311L389.334 89.0439L391.761 83.9511L394.33 88.9758Z" fill="#F99746"/>
<path d="M492.002 88.9758L497.598 89.7099L493.609 93.7039L494.641 99.2488L489.608 96.6915L484.649 99.3849L485.527 93.8133L481.431 89.9311L487.006 89.0439L489.436 83.9511L492.002 88.9758Z" fill="#F99746"/>
<path d="M93.6759 223.706C93.8826 223.91 93.8851 224.246 93.6783 224.455C93.4716 224.661 93.1384 224.664 92.9292 224.457C92.7224 224.253 92.72 223.917 92.9267 223.708C93.1335 223.502 93.4667 223.499 93.6735 223.706H93.6759Z" fill="#D5E5FB"/>
<path d="M91.9538 225.442C92.1605 225.648 92.163 225.981 91.9562 226.19C91.7495 226.397 91.4162 226.399 91.2095 226.193C91.0028 225.986 91.0003 225.653 91.2071 225.444C91.4138 225.235 91.747 225.235 91.9562 225.442H91.9538Z" fill="#D5E5FB"/>
<path d="M89.4607 227.206C89.6674 227 90.0006 226.997 90.2074 227.204C90.4141 227.408 90.4166 227.744 90.2098 227.953C90.0031 228.159 89.6698 228.162 89.4607 227.955C89.2539 227.749 89.2515 227.416 89.4582 227.206H89.4607Z" fill="#D5E5FB"/>
<path d="M88.4634 228.964C88.6702 229.168 88.6726 229.504 88.4659 229.713C88.2591 229.919 87.9259 229.922 87.7167 229.715C87.51 229.511 87.5075 229.176 87.7143 228.969C87.921 228.762 88.2543 228.76 88.4634 228.966V228.964Z" fill="#D5E5FB"/>
<path d="M86.7413 230.702C86.9481 230.909 86.9505 231.242 86.7438 231.451C86.537 231.657 86.2038 231.66 85.997 231.453C85.7903 231.247 85.7879 230.914 85.9946 230.705C86.2014 230.498 86.5346 230.496 86.7438 230.702H86.7413Z" fill="#D5E5FB"/>
<path d="M84.2482 232.465C84.4549 232.258 84.7882 232.255 84.9949 232.462C85.2017 232.669 85.2041 233.002 84.9974 233.211C84.7906 233.417 84.4574 233.42 84.2482 233.213C84.0415 233.007 84.039 232.674 84.2458 232.465H84.2482Z" fill="#D5E5FB"/>
<path d="M83.3215 234.152C83.5283 234.356 83.5307 234.691 83.324 234.9C83.1172 235.107 82.784 235.109 82.5748 234.903C82.3681 234.699 82.3656 234.363 82.5724 234.156C82.7791 233.95 83.1123 233.947 83.3191 234.154L83.3215 234.152Z" fill="#D5E5FB"/>
<path d="M81.5994 235.89C81.8062 236.096 81.8086 236.429 81.6019 236.638C81.3951 236.845 81.0619 236.847 80.8551 236.641C80.6484 236.434 80.646 236.101 80.8527 235.892C81.0594 235.685 81.3927 235.683 81.6019 235.89H81.5994Z" fill="#D5E5FB"/>
<path d="M79.1063 237.652C79.3106 237.445 79.6463 237.443 79.853 237.65C80.0598 237.856 80.0622 238.189 79.8555 238.398C79.6511 238.605 79.3155 238.607 79.1087 238.401C78.902 238.194 78.8996 237.861 79.1063 237.652Z" fill="#D5E5FB"/>
<path d="M78.1091 239.41C78.3158 239.614 78.3182 239.949 78.1115 240.158C77.9047 240.365 77.5715 240.367 77.3623 240.161C77.1556 239.954 77.1532 239.621 77.3599 239.412C77.5666 239.205 77.8999 239.203 78.1066 239.41H78.1091Z" fill="#D5E5FB"/>
<path d="M76.387 241.148C76.5937 241.352 76.5961 241.687 76.3894 241.894C76.1826 242.101 75.8494 242.103 75.6427 241.896C75.4359 241.692 75.4335 241.357 75.6402 241.148C75.847 240.941 76.1802 240.939 76.3894 241.145L76.387 241.148Z" fill="#D5E5FB"/>
<path d="M73.8938 242.913C74.1006 242.706 74.4338 242.703 74.6406 242.91C74.8473 243.117 74.8497 243.45 74.643 243.659C74.4362 243.865 74.103 243.868 73.8938 243.661C73.6871 243.455 73.6847 243.122 73.8914 242.913H73.8938Z" fill="#D5E5FB"/>
<path d="M117.489 213.913C118.525 207.631 114.269 201.7 107.984 200.664C101.699 199.629 95.7636 203.882 94.7276 210.163C93.6916 216.445 97.947 222.377 104.232 223.412C110.518 224.447 116.453 220.194 117.489 213.913Z" fill="#C6DCF7"/>
<path d="M102.401 207.402C102.401 205.358 104.057 203.702 106.102 203.702C108.148 203.702 109.804 205.358 109.804 207.402C109.804 209.446 108.148 211.102 106.102 211.102C104.057 211.102 102.401 209.446 102.401 207.402Z" fill="#EBF3FA"/>
<path d="M106.103 211.102C102.525 211.102 99.6252 213.999 99.6252 217.575H112.582C112.582 213.999 109.683 211.102 106.105 211.102H106.103Z" fill="#EBF3FA"/>
<path d="M64.347 247.597L63.9189 246.539C63.4616 245.404 62.3598 244.663 61.1363 244.663H53.2507V271.009H85.8657V249.663H67.4093C66.0617 249.663 64.8504 248.846 64.347 247.597Z" fill="#C6DCF7"/>
<path d="M74.4362 256.691H73.3466C73.3782 256.513 73.3952 256.331 73.3952 256.146V255.774C73.3952 254.058 71.9966 252.66 70.2794 252.66H68.3652C66.648 252.66 65.2494 254.058 65.2494 255.774V256.146C65.2494 256.331 65.2664 256.513 65.298 256.691H64.0867C63.4543 256.691 62.9411 257.204 62.9411 257.838V262.836C62.9411 265.666 65.2348 267.958 68.066 267.958H71.0918C73.7528 267.958 75.9078 265.804 75.9078 263.145V258.159C75.9078 257.347 75.2511 256.691 74.4387 256.691H74.4362ZM69.7881 261.72V264.042C69.7881 264.244 69.6227 264.407 69.4208 264.407C69.2189 264.407 69.0535 264.241 69.0535 264.042V261.72C68.2971 261.553 67.7303 260.879 67.7303 260.072C67.7303 259.139 68.4868 258.383 69.4208 258.383C70.3548 258.383 71.1113 259.139 71.1113 260.072C71.1113 260.879 70.5445 261.555 69.7881 261.72ZM72.1499 256.146C72.1499 256.336 72.1207 256.518 72.0696 256.691H66.5774C66.5239 256.518 66.4947 256.336 66.4947 256.146V255.774C66.4947 254.744 67.3339 253.905 68.3652 253.905H70.2794C71.3107 253.905 72.1499 254.744 72.1499 255.774V256.146Z" fill="#EBF3FA"/>
<path d="M159.915 245.55C159.915 245.55 160.53 238.843 153.032 238.843C153.032 238.843 155.303 239.458 156.481 240.691C156.481 240.691 151.699 237.885 146.494 242.198C141.288 246.51 144.523 257.325 142.94 259.377C141.357 261.431 135.193 261.842 135.947 268.481C136.701 275.12 155.51 283.436 154.301 288.929C154.301 288.929 161.671 278.1 156.4 273.158C156.4 273.158 158.969 275.577 159.232 278.452C159.232 278.452 159.93 272.839 156.354 271.045C153.192 269.456 150.602 263.646 150.874 262.608C151.149 261.57 159.915 245.552 159.915 245.552V245.55Z" fill="#2C3A64"/>
<path d="M152.533 277.755C152.533 277.755 158.135 300.919 163.634 305.55C166.94 308.333 176.769 314.721 176.769 314.721L172.68 316.204C172.68 316.204 159.047 311.602 155.994 308.017C152.942 304.431 144.587 286.46 144.587 286.46L152.533 277.757V277.755Z" fill="#FFB27D"/>
<path d="M184.88 323.186L183.565 319.928C182.154 316.435 178.761 314.148 174.991 314.148H150.704V395.306H251.173V329.55H194.32C190.171 329.55 186.437 327.031 184.883 323.188L184.88 323.186Z" fill="#F99746"/>
<path d="M99.8782 318.45C99.9269 318.538 99.9804 318.63 100.031 318.723C101.257 320.852 104.069 326.071 107.168 331.781C108.632 334.492 110.167 337.312 111.621 339.964C114.129 344.544 116.411 348.623 117.741 350.779C119.096 352.972 120.091 354.51 120.495 355.125H120.497C120.619 355.32 120.645 355.541 120.628 355.765C120.487 357.697 120.526 359.618 120.716 361.506C122.584 380.086 135.12 390.04 135.12 390.04L138.846 390.59C138.846 390.59 133.573 371.062 132.019 360.021C131.756 358.149 131.642 356.632 131.734 355.646C132.009 352.77 131.498 348.547 130.53 343.698C128.808 335.083 125.654 324.506 122.91 316.041C122.737 315.502 117.496 296.553 117.496 296.553C113.095 300.396 97.0519 301.981 97.0519 301.981C97.0519 301.981 94.3301 308.593 99.8782 318.45Z" fill="#2F539B"/>
<path d="M146.671 395.306H131.116C131.116 395.306 130.744 392.936 131.557 391.139C132.335 389.413 133.444 389.36 131.698 386.657C132.685 387.673 135.864 388.096 138.112 387.792C138.387 388.239 139.887 391.234 140.809 391.895C141.826 392.624 146.357 392.364 146.671 395.308V395.306Z" fill="#233862"/>
<path d="M99.8782 318.45C99.9269 318.538 99.9804 318.63 100.031 318.723C101.257 320.852 107.888 333.092 110.984 338.802C107.394 324.044 109.892 309.286 109.892 309.286L99.8782 318.453V318.45Z" fill="#233862"/>
<path d="M157.794 244.607C157.896 244.198 148.909 248.666 148.454 249.17C144.239 253.842 145.44 259.939 147.853 259.997C149.4 260.036 149.101 262.605 149.101 262.605L166.329 255.322C166.329 255.322 164.254 243.233 157.794 244.607Z" fill="#2C3A64"/>
<path d="M152.003 274.276C152.003 274.276 154.625 279.51 154.296 283.759C154.296 283.759 151.134 288.747 142.935 290.009C142.935 290.009 149.984 274.271 152 274.276H152.003Z" fill="#739AF0"/>
<path d="M112.003 303.141L112.057 300.233C106.261 300.962 92.0705 293.31 92.0705 293.31C92.0705 293.31 86.0067 297.34 85.1773 308.853C84.7711 314.471 82.2099 338.233 81.9253 345.329C81.8207 347.901 81.7867 349.736 81.7769 350.47C81.7769 350.475 81.7769 350.475 81.7769 350.477C81.7745 350.701 81.6675 350.898 81.5313 351.075C80.3321 352.6 79.2911 354.214 78.3912 355.886C69.5472 372.334 74.1711 394.681 74.1711 394.681L76.224 394.158C76.224 394.158 83.7033 370.992 88.5899 360.969C89.4193 359.27 90.1733 357.948 90.8033 357.182C92.6421 354.95 94.5782 351.163 96.49 346.603C100.1 337.983 112.006 303.138 112.006 303.138L112.003 303.141Z" fill="#2F539B"/>
<path d="M86.5394 395.306H70.9847C70.9847 395.306 70.6126 392.936 71.425 391.139C72.2033 389.413 73.4219 388.63 73.13 386.542C74.1176 387.558 75.7302 388.698 77.9776 388.397C78.2525 388.844 79.7557 391.234 80.6775 391.893C81.6942 392.622 86.2256 392.362 86.5394 395.306Z" fill="#233862"/>
<path d="M141.887 293.349C139.797 293.704 142.227 295.364 139.355 295.678C135.264 296.125 131.041 296.429 128.83 297.311C128.023 297.632 127.483 298.031 127.315 298.539C126.356 301.419 120.283 306.371 120.283 306.371C93.1967 305.139 91.4527 293.074 91.4527 293.074C109.031 276.012 123.987 266.711 136.346 265.559C139.355 265.279 143.409 265.656 145.311 266.502C149.634 268.425 152.003 274.278 152.003 274.278C152.003 274.278 149.826 291.997 141.887 293.349Z" fill="#739AF0"/>
<path d="M139.355 295.675C135.264 296.123 131.041 296.426 128.83 297.309C127.925 283.808 134.3 273.654 134.3 273.654C134.3 273.654 138.46 290.568 139.355 295.675Z" fill="#5A7DE0"/>
<path d="M142.884 271.369C142.884 271.369 132.598 270.807 130.771 277.261C128.944 283.715 134.201 309.475 135.332 312.135C137.394 316.975 147.792 331.392 147.792 331.392L151.125 329.666C151.125 329.666 144.431 308.561 142.935 306.473C140.588 303.194 145.961 274.176 142.882 271.369H142.884Z" fill="#FFB27D"/>
<path d="M151.127 329.667C151.127 329.667 151.988 330.415 152.679 331.259C153.37 332.105 152.762 332.409 154.749 336.235C154.749 336.235 154.647 336.767 154.216 336.67C153.786 336.573 152.285 335.09 151.516 335.197C151.516 335.197 150.967 335.649 150.906 337.149C150.85 338.551 150.845 341.653 150.602 342.237C150.359 342.82 148.573 339.794 147.693 337.606C146.922 335.688 147.673 329.219 147.673 329.219L151.127 329.669V329.667Z" fill="#FFB27D"/>
<path d="M128.743 285.891C128.769 286.042 138.477 287.675 144.548 284.595C144.548 284.595 149.619 268.714 142.371 269.475C135.123 270.236 130.832 272.516 130.647 275.985C130.465 279.454 128.74 285.891 128.74 285.891H128.743Z" fill="#739AF0"/>
<path d="M145.08 267.613C145.185 268.899 145.35 270.404 147.034 272.134C148.323 273.462 150.186 274.497 151.494 273.189C152.161 272.523 153.063 271.529 153.518 270.746C154.649 268.804 155.997 266.818 155.997 266.818L150.176 261.72L149.828 261.417C148.303 264.078 146.805 265.357 145.491 266.334C145.095 266.631 145.041 267.119 145.08 267.613Z" fill="#FFB27D"/>
<path d="M155.994 266.82C155.994 266.82 154.649 268.802 153.518 270.746C149.899 268.517 149.896 264.039 150.174 261.72L155.994 266.82Z" fill="#ED985F"/>
<path d="M156.157 269.373C156.157 269.373 147.372 264.487 150.5 259.066C153.628 253.645 154.6 249.362 160.343 252.252C166.086 255.142 165.972 257.833 165.368 259.897C164.765 261.961 158.524 270.503 156.157 269.373Z" fill="#FFB27D"/>
<path d="M166.852 256.737C166.451 254.33 165.227 254.1 164.374 254.26C161.129 248.897 155.829 250.99 155.829 250.99C152.998 254.542 148.904 255.147 148.904 255.147C148.904 255.147 149.923 257.043 154.124 258.217C155.408 258.575 156.863 258.358 158.268 257.887C155.354 259.511 152.307 260.133 152.307 260.133C157.843 260.639 163.109 255.582 163.656 255.04C163.911 255.823 164.359 257.464 164.091 258.665C163.727 260.296 162.279 263.247 163.162 263.631C163.162 263.631 167.458 260.349 166.854 256.739L166.852 256.737Z" fill="#2C3A64"/>
<path d="M178.376 314.731C178.376 314.731 175.925 316.569 177.773 317.77C179.622 318.971 182.92 319.296 182.932 318.509C182.978 315.864 181.658 313.982 178.376 314.731Z" fill="#FFB27D"/>
<path d="M215.401 351.095H212.234C212.327 350.58 212.378 350.052 212.378 349.512V348.431C212.378 343.442 208.318 339.385 203.327 339.385H197.764C192.773 339.385 188.716 343.442 188.716 348.431V349.512C188.716 350.052 188.765 350.58 188.857 351.095H185.338C183.499 351.095 182.008 352.585 182.008 354.425V368.943C182.008 377.159 188.672 383.82 196.894 383.82H205.682C213.407 383.82 219.667 377.563 219.667 369.842V355.361C219.667 353.006 217.758 351.097 215.401 351.097V351.095ZM201.899 365.705V372.448C201.899 373.031 201.42 373.51 200.834 373.51C200.248 373.51 199.769 373.031 199.769 372.448V365.705C197.567 365.218 195.923 363.262 195.923 360.913C195.923 358.203 198.122 356.005 200.834 356.005C203.546 356.005 205.745 358.203 205.745 360.913C205.745 363.259 204.098 365.218 201.899 365.705ZM208.756 349.512C208.756 350.062 208.673 350.594 208.52 351.095H192.567C192.413 350.594 192.328 350.062 192.328 349.512V348.431C192.328 345.436 194.765 343.002 197.759 343.002H203.322C206.319 343.002 208.754 345.438 208.754 348.431V349.512H208.756Z" fill="#FFDAA4"/>
<path d="M587.176 395.449H465.224C448.222 375.919 448.925 352.145 472.125 330.556C476.289 326.681 483.559 322.51 489.428 321.11C500.247 318.531 512.516 317.937 512.611 317.886C512.647 317.872 526.249 315.981 530.128 311.262C542.18 296.614 545.279 294.516 545.279 294.516C557.565 292.116 568.043 291.411 575.812 295.753C575.812 295.753 575.812 295.755 575.812 295.758C583.009 299.786 587.881 308.148 589.705 323.519C590.051 326.424 590.289 329.581 590.411 333.007C590.856 345.48 593.305 356.574 594.76 365.97C596.866 379.578 598.355 389.929 587.171 395.447L587.176 395.449Z" fill="#F99746"/>
<path d="M569.726 311.338C562.271 315.395 561.447 328.765 549.781 332.217C538.114 335.671 518.31 335.355 507.075 347.534C496.236 359.285 484.284 329.389 489.431 320.981C500.25 318.414 512.518 317.823 512.613 317.77C512.65 317.755 529.253 317.689 533.132 312.993C545.184 298.41 545.282 294.506 545.282 294.506C557.567 292.116 568.046 291.416 575.814 295.736C575.814 295.736 575.814 295.738 575.814 295.741C584.374 304.577 577.179 307.275 569.724 311.335L569.726 311.338Z" fill="#ED7D2B"/>
<path d="M594.762 365.634C577.653 344.291 542.506 373.386 533.412 372.567C525.05 371.811 549.718 342.64 580.309 338.299C592.675 336.544 589.713 323.772 589.708 323.378C590.053 326.271 590.292 329.414 590.413 332.824C590.858 345.241 593.308 356.285 594.762 365.637V365.634Z" fill="#ED7D2B"/>
<path d="M499.342 377.254C498.146 379.558 497.876 383.798 497.521 385.237C497.166 386.674 490.895 391.562 490.357 391.317C488.986 390.699 490.297 388.31 491.133 386.564C491.167 386.494 491.199 386.423 491.233 386.355C492.06 384.595 491.35 380.669 491.776 378.642C492.204 376.614 490.146 371.155 490.146 371.155L493.609 366.781C493.609 366.781 496.044 371.41 497.786 372.253C498.092 372.404 498.379 372.584 498.635 372.793C499.817 373.765 500.328 375.355 499.342 377.251V377.254Z" fill="#FFB27D"/>
<path d="M545.763 260.964C542.424 261.244 539.308 262.744 536.888 265.06C535.358 266.526 533.66 268.529 532.612 270.921C530.328 276.133 531.113 282.196 529.807 285.524C528.501 288.852 527.718 289.43 529.807 290.937C531.897 292.445 532.247 293.879 529.749 295.476C527.251 297.073 525.407 302.049 532.376 302.482C539.344 302.914 552.851 300.386 554.588 299.098C556.324 297.812 561.067 295.896 563.339 292.449C567.885 285.563 564.263 280.934 560.754 279.767C555.405 277.99 557.37 259.99 545.763 260.962V260.964Z" fill="#163560"/>
<path d="M536.613 289.817C536.613 289.817 529.705 305.404 528.265 306.76C526.825 308.117 520.085 310.764 520.691 313.034C521.297 315.305 526.37 317.5 528.491 316.97C530.612 316.44 535.988 307.283 535.988 307.283L536.61 289.817H536.613Z" fill="#739AF0"/>
<path d="M521.255 314.398C521.255 314.398 521.63 311.717 528.175 310.851C531.809 310.372 537.887 300.243 537.887 300.243L531.809 316.211L525.918 318.757L521.255 314.396V314.398Z" fill="#5A7DE0"/>
<path d="M523.916 319.437C523.916 319.437 489.817 317.053 485.145 322.461C481.438 326.752 488.188 373.634 488.188 373.634C488.188 373.634 497.467 373.904 498.197 371.449C498.197 371.449 496.465 348.688 497.915 344.753C499.364 340.817 498.447 335.369 498.447 335.369C498.447 335.369 516.602 338.087 522.362 336.709C528.122 335.33 523.914 319.44 523.914 319.44L523.916 319.437Z" fill="#233862"/>
<path d="M487.166 390.757C484.766 391.747 481.822 394.812 480.623 395.682C479.424 396.553 471.478 396.242 471.225 395.709C470.551 394.299 473.329 393.295 475.095 392.483C475.121 392.471 475.146 392.459 475.173 392.447L475.177 392.442C476.924 391.564 478.877 388.193 480.49 386.938C482.124 385.665 484.077 380.168 484.077 380.168L489.545 379.06C489.545 379.06 488.419 384.167 489.205 385.932C489.278 386.1 489.341 386.268 489.392 386.438C489.893 388.079 489.341 389.86 487.164 390.757H487.166Z" fill="#FFB27D"/>
<path d="M538.904 321.1C538.904 321.1 501.699 324.878 498.43 328.672C495.161 332.467 482.306 381.817 482.306 381.817C482.306 381.817 486.103 383.931 489.555 381.955C489.555 381.955 499.398 365.214 503.755 359.958C508.109 354.702 509.658 340.975 511.981 339.499C512.603 339.103 534.492 341.563 542.521 335.406C550.55 329.248 538.907 321.098 538.907 321.098L538.904 321.1Z" fill="#2A4E96"/>
<path d="M555.125 321.168C554.169 323.001 553.128 324.72 552.019 326.268C549.234 330.148 546.009 332.938 542.516 333.663C537.44 334.715 520.426 324.846 521.287 319.401C521.754 316.438 531.211 311.111 532.736 308.96C534.258 306.811 535.178 296.033 535.99 291.633C536.596 288.358 538.627 288.018 541.166 287.148C551.949 283.455 559.625 287.362 559.625 287.362C564.558 290.138 561.814 308.377 555.125 321.166V321.168Z" fill="#739AF0"/>
<path d="M554.605 276.145C554.605 276.145 555.184 273.503 555.415 270.681C555.58 268.665 552.518 262.097 547.763 262.369C547.763 262.369 545.637 262.783 543.749 264.334C542.249 265.566 540.152 268.121 543.346 274.288L544.221 276.391L554.605 276.145Z" fill="#163560"/>
<path d="M544.968 286.761C545.123 287.887 546.126 288.528 548.358 288.385C550.621 288.239 553.829 286.871 553.564 285.825C553.33 284.911 552.321 282.765 551.912 277.315L551.501 277.429L544.591 279.369C544.591 279.369 544.924 281.564 545.092 283.645C545.233 285.39 544.89 286.19 544.968 286.761Z" fill="#FFB27D"/>
<path d="M544.588 279.371C544.588 279.371 544.922 281.566 545.089 283.647C549.01 283.229 550.803 279.483 551.499 277.431L544.588 279.371Z" fill="#F4A269"/>
<path d="M544.442 282.565C544.442 282.565 553.486 280.292 551.983 274.687C550.479 269.081 550.635 265.012 544.798 266.225C538.96 267.438 538.418 269.876 538.464 271.869C538.51 273.863 542.051 283.01 544.442 282.565Z" fill="#FFB27D"/>
<path d="M540.66 267.19C540.66 267.19 543.696 272.973 549.424 273.595C552.776 273.96 553.695 276.167 553.695 276.167C553.695 276.167 552.69 269.857 551.005 265.996C551.005 265.996 541.677 263.561 540.66 267.19Z" fill="#163560"/>
<path d="M541.694 267.953C541.694 267.953 539.714 269.973 539.103 271.395C538.199 273.503 539.962 277.947 540.692 278.904C540.692 278.904 536.484 271.77 537.89 268.68C539.381 265.403 541.694 267.953 541.694 267.953Z" fill="#163560"/>
<path d="M514.114 319.994C514.114 319.994 512.314 321.9 512.095 322.002C510.903 322.559 509.4 322.235 508.673 322.418C507.946 322.6 508.072 322.148 508.607 321.781C509.142 321.414 510.463 321.557 509.923 321.423C509.383 321.29 506.474 320.748 505.377 321.039C503.643 321.504 502.273 320.957 502.164 320.782C502.054 320.604 506.126 318.616 507.289 318.684C508.452 318.752 511.796 318.591 511.796 318.591L514.114 319.996V319.994Z" fill="#FFB27D"/>
<path d="M562.682 290.879C562.682 290.879 563.765 317.386 560.647 321.102C557.623 324.705 544.71 322.26 539.13 321.049C538.86 320.991 538.289 321.047 537.885 321.409C537.45 321.8 537.26 318.757 537.26 318.757C537.26 318.757 554.104 316.294 555.235 315.973C556.862 315.514 555.728 297.26 555.728 297.26L562.682 290.879Z" fill="#FFB27D"/>
<path d="M538.573 320.692C538.573 320.692 537.063 322.221 536.489 323.001C535.915 323.781 531.901 325.196 531.811 324.778C531.721 324.36 533.606 323.086 533.779 322.612C533.952 322.138 536.007 319.753 537.26 319.481C538.512 319.209 538.576 320.692 538.576 320.692H538.573Z" fill="#FFB27D"/>
<path d="M537.26 318.754C537.26 318.754 531.072 320.184 530.021 320.614C528.97 321.042 526.742 324.195 527.628 324.666C528.185 324.965 530.627 323.677 531.867 323.407C533.108 323.14 536.62 323.747 538.228 320.575C538.408 320.218 537.262 318.754 537.262 318.754H537.26Z" fill="#FFB27D"/>
<path d="M487.166 390.757C484.766 391.747 481.822 394.812 480.623 395.682C479.424 396.553 471.478 396.242 471.225 395.709C470.551 394.299 473.329 393.295 475.095 392.483C475.121 392.471 475.146 392.459 475.173 392.447L475.177 392.442L475.425 392.359C475.425 392.359 478.853 393.582 481.701 392.359C483.924 391.407 487.22 387.872 489.392 386.435C489.893 388.076 489.341 389.858 487.164 390.755L487.166 390.757Z" fill="#2A4E96"/>
<path d="M499.342 377.254C498.146 379.558 497.876 383.798 497.521 385.237C497.166 386.674 490.895 391.562 490.357 391.317C488.986 390.699 490.297 388.31 491.133 386.564C491.627 386.535 492.279 386.362 493.048 385.852C494.614 384.809 497.273 380.871 497.511 378.545C497.706 376.651 497.584 373.938 498.635 372.793C499.817 373.765 500.328 375.355 499.342 377.251V377.254Z" fill="#193B72"/>
<path d="M529.279 325.466H502.322L494.213 305.311H521.129L529.279 325.466Z" fill="#EF8035"/>
<path d="M502.006 324.678H537.603V325.466H502.322L502.006 324.678Z" fill="#ED7D2B"/>
<path d="M509.128 315.387C508.926 314.68 509.334 314.104 510.042 314.104C510.75 314.104 511.489 314.678 511.694 315.387C511.898 316.095 511.487 316.671 510.779 316.671C510.071 316.671 509.332 316.097 509.128 315.387Z" fill="white"/>
<path d="M555.125 321.168C554.169 323.001 553.128 324.72 552.019 326.268C543.38 325.945 541.295 322.456 541.295 322.456L555.123 321.168H555.125Z" fill="#5A7DE0"/>
<path d="M541.699 317.869C541.699 317.869 551.562 315.606 552.788 313.489C554.014 311.369 555.728 297.258 555.728 297.258L559.844 302.53L559.012 314.938C559.012 314.938 554.318 319.581 554.014 319.411C553.71 319.24 541.699 317.872 541.699 317.872V317.869Z" fill="#5A7DE0"/>
<path d="M559.625 287.364C559.625 287.364 561.962 288.538 562.865 290.186C564.58 293.317 566.411 317.58 561.537 321.589C556.665 325.597 542.521 324.797 540.857 321.961C540.857 321.961 540.74 319.299 541.696 317.869C541.696 317.869 554.427 316.19 554.996 315.387C555.563 314.585 554.585 297.396 555.186 295.836C555.787 294.275 559.623 287.364 559.623 287.364H559.625Z" fill="#739AF0"/>
<path d="M561.741 321.324C561.741 321.324 558.066 324.766 542.689 325.259C530.663 325.646 517.998 330.491 512.08 338.812C510.431 341.133 509.291 344.954 508.853 347.529C508.05 352.259 538.041 359.613 538.522 358.927C539.004 358.242 558.275 341.695 558.275 341.695L561.741 321.324Z" fill="#F99746"/>
<path d="M422.686 226.426C422.686 226.426 437.642 241.923 438.347 247.755C439.055 253.587 431.184 262.693 431.184 262.693L422.686 226.426Z" fill="#ED7D2B"/>
<path d="M415.929 387.031C415.929 387.031 415.401 395.25 413.81 395.366C413.598 395.381 405.737 395.366 405.737 395.366L395.704 395.286C395.704 395.286 395.774 392.87 398.708 392.367C401.641 391.861 406.554 389.812 408.34 385.942C410.218 381.87 415.926 387.033 415.926 387.033L415.929 387.031Z" fill="#0E2644"/>
<path d="M438.277 387.079C438.277 387.079 437.749 395.301 436.158 395.415C435.947 395.43 428.085 395.415 428.085 395.415L418.052 395.335C418.052 395.335 418.123 392.919 421.056 392.415C423.989 391.91 428.903 389.863 430.688 385.99C432.566 381.919 438.274 387.082 438.274 387.082L438.277 387.079Z" fill="#0E2644"/>
<path d="M405.01 298.653C405.01 298.653 407.598 315.434 417.322 345.232C427.047 375.03 428.353 387.925 428.353 387.925L438.856 387.653C438.856 387.653 439.016 355.111 434.538 340.129C430.06 325.145 433.682 286.146 433.682 286.146L405.012 298.653H405.01Z" fill="#163560"/>
<path d="M399.924 286.99C399.924 286.99 399.498 312.266 403.806 343.311C408.114 374.356 406.603 387.527 406.603 387.527L417.084 387.899C417.084 387.899 423.415 356.863 421.652 341.325C419.891 325.787 430.345 288.04 430.345 288.04L399.924 286.99Z" fill="#1C468A"/>
<path d="M420.341 227.882L414.749 231.529L406.681 230.007C406.793 229.355 407.333 226.66 407.824 224.216C407.853 224.073 407.882 223.927 407.912 223.786C408.332 221.708 408.695 219.921 408.695 219.921L416.24 216.613L419.054 215.38C419.047 215.424 418.83 217.687 418.801 218.018C418.261 223.886 420.343 227.88 420.343 227.88L420.341 227.882Z" fill="#FFB27D"/>
<path d="M408.758 226.01C408.914 225.945 418.482 223.144 419.521 223.49C420.56 223.835 421.17 225.845 421.17 225.845L405.523 229.346C405.523 229.346 406.759 226.847 408.758 226.01Z" fill="#ED7D2B"/>
<path d="M434.366 290.186C432.729 297.571 405.752 298.391 398.815 291.667C398.024 290.901 397.995 287.342 398.304 282.548C398.907 273.18 400.812 259.088 400.902 251.887C400.945 248.409 401.43 244.855 402.074 241.627C403.443 234.745 405.523 229.348 405.523 229.348C405.523 229.348 418.706 225.121 421.17 225.85C433.04 229.363 436.005 282.804 434.368 290.189L434.366 290.186Z" fill="#F99746"/>
<path d="M398.304 282.548C398.907 273.18 400.812 259.088 400.902 251.887C400.945 248.409 401.43 244.855 402.074 241.627L410.003 240.246C410.003 240.246 417.685 271.894 398.306 282.551L398.304 282.548Z" fill="#ED7D2B"/>
<path d="M402.624 269.497C402.624 269.497 403.161 270.788 402.025 271.653C400.89 272.518 400.15 273.919 400.408 274.945C400.666 275.97 403.152 277.65 404.015 277.383C404.879 277.115 406.637 275.766 406.45 275.226C406.263 274.684 407.642 270.481 405.543 268.855C403.443 267.231 402.629 269.497 402.629 269.497H402.624Z" fill="#FFB27D"/>
<path d="M411.577 227.462C411.577 227.462 403.845 228.891 397.667 237.949C391.489 247.006 387.422 253.742 388.548 257.012C389.674 260.284 399.992 271.643 401.775 271.648C403.558 271.653 406.438 270.362 406.605 267.448C406.605 267.448 399.347 256.526 400.787 254.894C401.403 254.197 410.256 247.045 411.511 250.288C413.589 255.653 411.577 227.462 411.577 227.462Z" fill="#F99746"/>
<path d="M418.234 218.122C416.573 220.92 410.4 223.332 407.827 224.216C407.856 224.073 407.885 223.927 407.914 223.786C408.335 221.708 408.697 219.921 408.697 219.921L416.242 216.613C417.908 216.593 418.923 216.968 418.237 218.12L418.234 218.122Z" fill="#FCA56B"/>
<path d="M405.854 219.459C405.854 219.459 417.986 223.271 420.246 215.682C422.506 208.092 425.592 203.476 417.94 200.719C410.288 197.965 407.914 200.411 406.545 202.761C405.175 205.112 402.755 218.27 405.854 219.459Z" fill="#FFB27D"/>
<path d="M407.024 202.032C407.024 202.032 407.778 210.871 409.607 210.489C411.436 210.11 413.095 209.828 412.822 212.492C412.55 215.154 410.006 218.224 415.642 218.708C421.275 219.192 429.408 204.687 427.866 201.932C423.418 193.988 400.59 192.338 407.026 202.03L407.024 202.032Z" fill="#163560"/>
<path d="M504.922 179.082C504.696 179.306 504.694 179.67 504.917 179.896C505.141 180.122 505.506 180.125 505.732 179.901C505.958 179.678 505.961 179.313 505.737 179.087C505.513 178.861 505.148 178.858 504.922 179.082Z" fill="#D5E5FB"/>
<path d="M506.798 180.976C506.571 181.199 506.569 181.564 506.793 181.79C507.016 182.016 507.381 182.018 507.607 181.795C507.834 181.571 507.836 181.207 507.612 180.981C507.389 180.754 507.024 180.752 506.798 180.976Z" fill="#D5E5FB"/>
<path d="M509.512 182.896C509.288 182.67 508.923 182.668 508.697 182.891C508.471 183.115 508.468 183.479 508.692 183.706C508.916 183.932 509.281 183.934 509.507 183.71C509.733 183.487 509.736 183.122 509.512 182.896Z" fill="#D5E5FB"/>
<path d="M510.597 184.807C510.371 185.03 510.368 185.395 510.592 185.621C510.816 185.847 511.181 185.85 511.407 185.626C511.633 185.402 511.635 185.038 511.412 184.812C511.188 184.586 510.823 184.583 510.597 184.807Z" fill="#D5E5FB"/>
<path d="M512.472 186.7C512.246 186.924 512.243 187.289 512.467 187.515C512.691 187.741 513.056 187.743 513.282 187.52C513.508 187.296 513.511 186.931 513.287 186.705C513.063 186.479 512.698 186.477 512.472 186.7Z" fill="#D5E5FB"/>
<path d="M515.187 188.621C514.963 188.395 514.598 188.392 514.372 188.616C514.146 188.84 514.143 189.204 514.367 189.43C514.591 189.656 514.955 189.659 515.182 189.435C515.408 189.212 515.41 188.847 515.187 188.621Z" fill="#D5E5FB"/>
<path d="M516.196 190.456C515.97 190.68 515.967 191.044 516.191 191.271C516.415 191.497 516.78 191.499 517.006 191.275C517.232 191.052 517.235 190.687 517.011 190.461C516.787 190.235 516.422 190.233 516.196 190.456Z" fill="#D5E5FB"/>
<path d="M518.071 192.347C517.845 192.571 517.843 192.936 518.066 193.162C518.29 193.388 518.655 193.39 518.881 193.167C519.107 192.943 519.11 192.578 518.886 192.352C518.662 192.126 518.297 192.124 518.071 192.347Z" fill="#D5E5FB"/>
<path d="M520.786 194.268C520.562 194.042 520.197 194.039 519.971 194.263C519.745 194.487 519.742 194.851 519.966 195.077C520.19 195.303 520.555 195.306 520.781 195.082C521.007 194.859 521.01 194.494 520.786 194.268Z" fill="#D5E5FB"/>
<path d="M521.871 196.181C521.644 196.405 521.642 196.769 521.866 196.995C522.089 197.221 522.454 197.224 522.68 197C522.907 196.776 522.909 196.412 522.685 196.186C522.462 195.96 522.097 195.957 521.871 196.181Z" fill="#D5E5FB"/>
<path d="M523.746 198.072C523.52 198.296 523.517 198.66 523.741 198.887C523.965 199.113 524.33 199.115 524.556 198.891C524.782 198.668 524.784 198.303 524.561 198.077C524.337 197.851 523.972 197.849 523.746 198.072Z" fill="#D5E5FB"/>
<path d="M526.46 199.993C526.237 199.767 525.872 199.764 525.646 199.988C525.419 200.211 525.417 200.576 525.641 200.802C525.864 201.028 526.229 201.031 526.455 200.807C526.682 200.583 526.684 200.219 526.46 199.993Z" fill="#D5E5FB"/>
<path d="M482.109 184.923C481.801 184.853 481.492 185.045 481.419 185.356C481.348 185.665 481.54 185.974 481.852 186.046C482.161 186.117 482.469 185.925 482.542 185.614C482.613 185.305 482.421 184.996 482.109 184.923Z" fill="#D5E5FB"/>
<path d="M481.511 187.517C481.202 187.447 480.891 187.639 480.82 187.95C480.75 188.259 480.942 188.567 481.253 188.64C481.562 188.711 481.871 188.519 481.944 188.208C482.015 187.899 481.822 187.59 481.511 187.517Z" fill="#D5E5FB"/>
<path d="M481.336 190.835C481.407 190.527 481.214 190.218 480.903 190.145C480.594 190.074 480.285 190.267 480.212 190.578C480.142 190.886 480.334 191.195 480.645 191.268C480.954 191.339 481.263 191.147 481.336 190.835Z" fill="#D5E5FB"/>
<path d="M480.3 192.775C479.991 192.705 479.682 192.897 479.609 193.208C479.538 193.517 479.731 193.825 480.042 193.898C480.351 193.969 480.66 193.777 480.733 193.466C480.803 193.157 480.611 192.848 480.3 192.775Z" fill="#D5E5FB"/>
<path d="M479.701 195.371C479.393 195.301 479.084 195.493 479.011 195.804C478.94 196.113 479.132 196.422 479.444 196.495C479.753 196.565 480.064 196.373 480.134 196.062C480.205 195.753 480.013 195.444 479.701 195.371Z" fill="#D5E5FB"/>
<path d="M479.529 198.69C479.599 198.381 479.407 198.072 479.096 197.999C478.787 197.929 478.478 198.121 478.405 198.432C478.335 198.741 478.527 199.049 478.838 199.122C479.147 199.193 479.456 199.001 479.529 198.69Z" fill="#D5E5FB"/>
<path d="M478.514 200.523C478.206 200.452 477.897 200.644 477.824 200.955C477.753 201.264 477.945 201.573 478.257 201.646C478.566 201.716 478.874 201.524 478.947 201.213C479.018 200.904 478.826 200.595 478.514 200.523Z" fill="#D5E5FB"/>
<path d="M477.916 203.119C477.607 203.048 477.298 203.24 477.225 203.551C477.155 203.86 477.347 204.169 477.658 204.242C477.967 204.312 478.279 204.12 478.349 203.809C478.42 203.5 478.227 203.192 477.916 203.119Z" fill="#D5E5FB"/>
<path d="M477.743 206.437C477.814 206.128 477.622 205.819 477.311 205.747C477.002 205.676 476.693 205.868 476.62 206.179C476.549 206.488 476.741 206.797 477.053 206.87C477.362 206.94 477.67 206.748 477.743 206.437Z" fill="#D5E5FB"/>
<path d="M476.707 208.377C476.398 208.306 476.089 208.498 476.017 208.809C475.946 209.118 476.138 209.427 476.449 209.5C476.758 209.57 477.07 209.378 477.14 209.067C477.211 208.758 477.019 208.447 476.707 208.377Z" fill="#D5E5FB"/>
<path d="M476.109 210.971C475.8 210.9 475.491 211.092 475.418 211.403C475.348 211.712 475.54 212.021 475.851 212.094C476.16 212.164 476.469 211.972 476.542 211.661C476.615 211.35 476.42 211.043 476.109 210.971Z" fill="#D5E5FB"/>
<path d="M475.934 214.291C476.004 213.982 475.812 213.674 475.501 213.601C475.192 213.53 474.883 213.722 474.81 214.033C474.74 214.342 474.932 214.651 475.243 214.724C475.552 214.794 475.861 214.602 475.934 214.291Z" fill="#D5E5FB"/>
<path d="M503.949 166.368C503.949 159.438 498.328 153.82 491.394 153.82C484.459 153.82 478.838 159.438 478.838 166.368C478.838 173.299 484.459 178.917 491.394 178.917C498.328 178.917 503.949 173.299 503.949 166.368Z" fill="#C6DCF7"/>
<path d="M495.424 161.332C495.424 159.107 493.619 157.304 491.394 157.304C489.168 157.304 487.363 159.107 487.363 161.332C487.363 163.556 489.168 165.36 491.394 165.36C493.619 165.36 495.424 163.556 495.424 161.332Z" fill="#EBF3FA"/>
<path d="M491.394 165.36C495.288 165.36 498.447 168.515 498.447 172.409H484.342C484.342 168.517 487.499 165.36 491.396 165.36H491.394Z" fill="#EBF3FA"/>
<path d="M521.995 205.095L521.53 203.943C521.031 202.708 519.832 201.898 518.499 201.898H509.916V230.583H545.425V207.344H525.332C523.865 207.344 522.547 206.454 521.997 205.095H521.995Z" fill="#C6DCF7"/>
<path d="M532.981 214.996H531.794C531.828 214.804 531.848 214.605 531.848 214.403V213.997C531.848 212.128 530.325 210.606 528.455 210.606H526.37C524.5 210.606 522.977 212.128 522.977 213.997V214.403C522.977 214.605 522.997 214.804 523.031 214.996H521.712C521.022 214.996 520.465 215.555 520.465 216.243V221.683C520.465 224.763 522.963 227.26 526.044 227.26H529.338C532.235 227.26 534.579 224.914 534.579 222.021V216.593C534.579 215.711 533.864 214.994 532.981 214.994V214.996ZM527.922 220.473V223.001C527.922 223.22 527.742 223.4 527.523 223.4C527.304 223.4 527.124 223.22 527.124 223.001V220.473C526.3 220.291 525.682 219.556 525.682 218.676C525.682 217.66 526.507 216.836 527.523 216.836C528.54 216.836 529.364 217.66 529.364 218.676C529.364 219.556 528.747 220.291 527.922 220.473ZM530.493 214.403C530.493 214.61 530.461 214.809 530.406 214.996H524.427C524.369 214.809 524.337 214.61 524.337 214.403V213.997C524.337 212.874 525.249 211.962 526.373 211.962H528.457C529.581 211.962 530.493 212.874 530.493 213.997V214.403Z" fill="#EBF3FA"/>
<path d="M461.941 232.105C461.941 238.515 472.801 250.213 472.801 250.213C472.801 250.213 483.659 238.515 483.659 232.105C483.659 225.694 478.799 220.505 472.801 220.505C466.803 220.505 461.941 225.699 461.941 232.105ZM466.499 230.928C466.499 227.452 469.318 224.63 472.801 224.63C476.284 224.63 479.103 227.45 479.103 230.928C479.103 234.407 476.282 237.227 472.801 237.227C469.32 237.227 466.499 234.409 466.499 230.928Z" fill="#C6DCF7"/>
<path d="M634.251 395.172H0.749153C0.335407 395.172 0 395.507 0 395.921V396.251C0 396.665 0.335407 397 0.749153 397H634.251C634.665 397 635 396.665 635 396.251V395.921C635 395.507 634.665 395.172 634.251 395.172Z" fill="#233862"/>
<path d="M211.084 227.542C210.816 226.436 211.3 225.566 212.327 225.566C213.348 225.566 214.243 226.419 214.516 227.537C214.783 228.643 214.304 229.513 213.273 229.513C212.242 229.513 211.356 228.66 211.084 227.542ZM213.643 227.537C213.475 226.844 213.005 226.322 212.499 226.322C211.991 226.322 211.784 226.83 211.954 227.54C212.125 228.237 212.584 228.755 213.098 228.755C213.611 228.755 213.813 228.242 213.643 227.537Z" fill="#F99746"/>
<path d="M196.251 198.855L195.619 199.02L195.276 198.332L196.305 198.004H196.884L197.815 201.847H196.976L196.251 198.855Z" fill="#2F539B"/>
<path d="M199.263 199.934C198.995 198.828 199.479 197.958 200.506 197.958C201.527 197.958 202.422 198.811 202.695 199.929C202.962 201.035 202.483 201.903 201.452 201.906C200.42 201.906 199.535 201.052 199.263 199.934ZM201.821 199.929C201.654 199.237 201.184 198.714 200.678 198.714C200.17 198.714 199.963 199.222 200.133 199.932C200.301 200.629 200.763 201.147 201.277 201.147C201.79 201.147 201.992 200.634 201.821 199.929Z" fill="#2F539B"/>
<path d="M217.345 253.052C217.077 251.946 217.561 251.075 218.587 251.075C219.609 251.075 220.504 251.929 220.777 253.047C221.044 254.153 220.565 255.023 219.534 255.023C218.502 255.023 217.617 254.17 217.345 253.052ZM219.903 253.047C219.736 252.354 219.266 251.831 218.76 251.831C218.252 251.831 218.045 252.34 218.215 253.049C218.386 253.747 218.848 254.265 219.358 254.265C219.872 254.265 220.074 253.752 219.903 253.047Z" fill="#2F539B"/>
<path d="M200.603 216.817L199.97 216.982L199.628 216.294L200.656 215.966H201.235L202.167 219.809H201.328L200.603 216.817Z" fill="#2F539B"/>
<path d="M203.614 217.899C203.347 216.793 203.831 215.922 204.857 215.922C205.879 215.922 206.774 216.775 207.046 217.894C207.314 219 206.834 219.868 205.803 219.87C204.772 219.87 203.887 219.017 203.614 217.899ZM206.173 217.894C206.005 217.201 205.536 216.678 205.03 216.678C204.521 216.678 204.315 217.186 204.485 217.896C204.655 218.594 205.115 219.112 205.628 219.112C206.141 219.112 206.343 218.599 206.173 217.894Z" fill="#2F539B"/>
<path d="M203.111 207.781L202.478 207.946L202.135 207.259L203.164 206.93H203.743L204.675 210.774H203.835L203.111 207.781Z" fill="#F99746"/>
<path d="M206.119 208.86C205.852 207.754 206.336 206.884 207.362 206.884C208.384 206.884 209.279 207.737 209.551 208.856C209.819 209.962 209.34 210.83 208.308 210.832C207.277 210.832 206.392 209.979 206.119 208.86ZM208.678 208.856C208.51 208.163 208.041 207.64 207.535 207.64C207.027 207.64 206.82 208.148 206.99 208.858C207.16 209.556 207.623 210.074 208.133 210.074C208.647 210.074 208.848 209.561 208.678 208.856Z" fill="#F99746"/>
<path d="M202.943 226.47L202.31 226.635L201.967 225.947L202.996 225.619H203.575L204.507 229.462H203.668L202.943 226.47Z" fill="#2F539B"/>
<path d="M205.952 227.552C205.684 226.446 206.168 225.575 207.194 225.575C208.216 225.575 209.111 226.429 209.384 227.547C209.651 228.653 209.172 229.521 208.141 229.523C207.109 229.523 206.224 228.67 205.952 227.552ZM208.51 227.547C208.343 226.854 207.873 226.331 207.367 226.331C206.859 226.331 206.652 226.839 206.822 227.549C206.993 228.247 207.452 228.765 207.966 228.765C208.479 228.765 208.681 228.252 208.51 227.547Z" fill="#2F539B"/>
<path d="M213.815 199.932C213.548 198.826 214.032 197.955 215.058 197.955C216.08 197.955 216.975 198.809 217.247 199.927C217.515 201.033 217.036 201.903 216.004 201.903C214.973 201.903 214.088 201.05 213.815 199.932ZM216.374 199.927C216.206 199.234 215.737 198.711 215.231 198.711C214.723 198.711 214.516 199.22 214.686 199.929C214.856 200.627 215.318 201.145 215.829 201.145C216.342 201.145 216.544 200.632 216.374 199.927Z" fill="#F99746"/>
<path d="M205.674 198.86L205.042 199.025L204.699 198.337L205.728 198.009H206.307L207.238 201.852H206.399L205.674 198.86Z" fill="#2F539B"/>
<path d="M208.685 199.939C208.418 198.833 208.902 197.963 209.928 197.963C210.95 197.963 211.845 198.816 212.117 199.934C212.385 201.04 211.906 201.908 210.875 201.911C209.843 201.911 208.958 201.057 208.685 199.939ZM211.244 199.934C211.076 199.241 210.607 198.719 210.101 198.719C209.593 198.719 209.386 199.227 209.556 199.937C209.727 200.634 210.189 201.152 210.699 201.152C211.213 201.152 211.415 200.639 211.244 199.934Z" fill="#2F539B"/>
<path d="M215.549 246.187C215.282 245.081 215.766 244.211 216.792 244.211C217.814 244.211 218.709 245.064 218.981 246.182C219.249 247.288 218.77 248.158 217.739 248.158C216.707 248.158 215.822 247.305 215.549 246.187ZM218.108 246.182C217.94 245.489 217.471 244.967 216.965 244.967C216.457 244.967 216.25 245.475 216.42 246.185C216.591 246.882 217.05 247.4 217.563 247.4C218.077 247.4 218.279 246.885 218.108 246.182Z" fill="#F99746"/>
<path d="M205.071 235.464L204.439 235.63L204.096 234.942L205.125 234.613H205.703L206.635 238.457H205.796L205.071 235.464Z" fill="#2F539B"/>
<path d="M208.082 236.544C207.815 235.438 208.299 234.567 209.325 234.567C210.347 234.567 211.242 235.421 211.514 236.539C211.782 237.645 211.303 238.513 210.271 238.515C209.24 238.515 208.355 237.662 208.082 236.544ZM210.641 236.539C210.473 235.846 210.004 235.323 209.498 235.323C208.99 235.323 208.783 235.831 208.953 236.541C209.123 237.239 209.585 237.757 210.096 237.757C210.609 237.757 210.811 237.244 210.641 236.539Z" fill="#2F539B"/>
<path d="M213.212 236.536C212.944 235.43 213.429 234.56 214.455 234.56C215.477 234.56 216.372 235.413 216.644 236.531C216.912 237.637 216.432 238.508 215.401 238.508C214.37 238.508 213.484 237.655 213.212 236.536ZM215.771 236.531C215.603 235.839 215.134 235.316 214.628 235.316C214.119 235.316 213.913 235.824 214.083 236.534C214.253 237.232 214.715 237.749 215.226 237.749C215.739 237.749 215.941 237.234 215.771 236.531Z" fill="#2F539B"/>
<path d="M218.736 235.44L218.103 235.605L217.76 234.917L218.789 234.589H219.368L220.3 238.432H219.461L218.736 235.44Z" fill="#2F539B"/>
<path d="M207.411 245.115L206.779 245.28L206.436 244.592L207.464 244.264H208.043L208.975 248.107H208.136L207.411 245.115Z" fill="#2F539B"/>
<path d="M210.42 246.197C210.152 245.091 210.636 244.22 211.663 244.22C212.684 244.22 213.579 245.074 213.852 246.192C214.119 247.298 213.64 248.166 212.609 248.168C211.577 248.168 210.692 247.315 210.42 246.197ZM212.979 246.192C212.811 245.499 212.341 244.976 211.835 244.976C211.327 244.976 211.12 245.484 211.29 246.194C211.461 246.892 211.92 247.41 212.434 247.41C212.947 247.41 213.149 246.897 212.979 246.192Z" fill="#2F539B"/>
<path d="M220.088 267.591C219.821 266.485 220.305 265.615 221.331 265.615C222.353 265.615 223.248 266.468 223.52 267.586C223.788 268.692 223.309 269.56 222.277 269.563C221.246 269.563 220.361 268.709 220.088 267.591ZM222.647 267.586C222.479 266.893 222.01 266.371 221.504 266.371C220.995 266.371 220.789 266.879 220.959 267.589C221.129 268.286 221.589 268.804 222.102 268.804C222.615 268.804 222.817 268.291 222.647 267.586Z" fill="#2F539B"/>
<path d="M225.612 266.497L224.98 266.662L224.637 265.974L225.665 265.646H226.244L227.176 269.49H226.337L225.612 266.497Z" fill="#2F539B"/>
<path d="M211.947 266.519L211.315 266.684L210.972 265.996L212.001 265.668H212.58L213.511 269.511H212.672L211.947 266.519Z" fill="#2F539B"/>
<path d="M214.956 267.601C214.688 266.495 215.172 265.627 216.199 265.624C217.22 265.624 218.116 266.478 218.388 267.596C218.656 268.702 218.176 269.57 217.145 269.572C216.114 269.572 215.228 268.719 214.956 267.601ZM217.515 267.596C217.347 266.903 216.878 266.38 216.372 266.38C215.863 266.38 215.657 266.888 215.827 267.598C215.997 268.296 216.459 268.814 216.97 268.814C217.483 268.814 217.685 268.298 217.515 267.596Z" fill="#2F539B"/>
<path d="M228.621 267.576C228.353 266.47 228.837 265.603 229.864 265.6C230.885 265.6 231.78 266.453 232.053 267.572C232.32 268.678 231.841 269.545 230.81 269.548C229.779 269.548 228.893 268.695 228.621 267.576ZM231.18 267.572C231.012 266.879 230.542 266.356 230.036 266.356C229.528 266.356 229.321 266.864 229.492 267.574C229.662 268.272 230.124 268.789 230.635 268.789C231.148 268.789 231.35 268.274 231.18 267.572Z" fill="#F99746"/>
<path d="M233.753 267.569C233.485 266.463 233.969 265.593 234.996 265.593C236.017 265.593 236.913 266.446 237.185 267.564C237.453 268.67 236.973 269.538 235.942 269.541C234.911 269.541 234.025 268.687 233.753 267.569ZM236.312 267.564C236.144 266.871 235.674 266.349 235.169 266.349C234.66 266.349 234.453 266.857 234.624 267.567C234.794 268.264 235.254 268.782 235.767 268.782C236.28 268.782 236.482 268.269 236.312 267.564Z" fill="#F99746"/>
<path d="M213.747 274.475C213.48 273.369 213.964 272.499 214.99 272.499C216.012 272.499 216.907 273.352 217.179 274.47C217.447 275.577 216.968 276.447 215.936 276.447C214.905 276.447 214.02 275.594 213.747 274.475ZM216.306 274.47C216.138 273.778 215.669 273.255 215.163 273.255C214.654 273.255 214.448 273.763 214.618 274.473C214.788 275.171 215.248 275.688 215.761 275.688C216.274 275.688 216.476 275.175 216.306 274.47Z" fill="#2F539B"/>
<path d="M219.273 273.381L218.641 273.547L218.298 272.859L219.327 272.531H219.906L220.837 276.374H219.998L219.273 273.381Z" fill="#2F539B"/>
<path d="M222.282 274.461C222.015 273.355 222.499 272.487 223.525 272.484C224.547 272.484 225.442 273.338 225.714 274.456C225.982 275.562 225.503 276.43 224.471 276.432C223.44 276.432 222.555 275.579 222.282 274.461ZM224.841 274.456C224.673 273.763 224.204 273.24 223.698 273.24C223.189 273.24 222.983 273.749 223.153 274.458C223.323 275.156 223.783 275.674 224.296 275.674C224.809 275.674 225.011 275.161 224.841 274.456Z" fill="#2F539B"/>
<path d="M227.412 274.453C227.144 273.347 227.628 272.477 228.655 272.477C229.676 272.477 230.571 273.33 230.844 274.449C231.111 275.555 230.632 276.425 229.601 276.425C228.57 276.425 227.684 275.572 227.412 274.453ZM229.971 274.449C229.803 273.756 229.333 273.233 228.828 273.233C228.319 273.233 228.112 273.741 228.283 274.451C228.45 275.149 228.913 275.666 229.426 275.666C229.939 275.666 230.141 275.154 229.971 274.449Z" fill="#2F539B"/>
<path d="M375.297 267.591C375.029 266.485 375.513 265.615 376.54 265.615C377.561 265.615 378.456 266.468 378.729 267.586C378.996 268.692 378.517 269.56 377.486 269.563C376.455 269.563 375.569 268.709 375.297 267.591ZM377.856 267.586C377.688 266.893 377.218 266.371 376.712 266.371C376.204 266.371 375.997 266.879 376.168 267.589C376.335 268.286 376.797 268.804 377.311 268.804C377.824 268.804 378.026 268.291 377.856 267.586Z" fill="#2F539B"/>
<path d="M380.821 266.497L380.188 266.662L379.845 265.974L380.874 265.646H381.453L382.384 269.49H381.545L380.821 266.497Z" fill="#2F539B"/>
<path d="M367.156 266.519L366.523 266.684L366.18 265.996L367.209 265.668H367.788L368.72 269.511H367.881L367.156 266.519Z" fill="#2F539B"/>
<path d="M370.167 267.601C369.899 266.495 370.383 265.627 371.41 265.624C372.431 265.624 373.327 266.478 373.599 267.596C373.867 268.702 373.387 269.57 372.356 269.572C371.325 269.572 370.439 268.719 370.167 267.601ZM372.726 267.596C372.558 266.903 372.089 266.38 371.58 266.38C371.072 266.38 370.865 266.888 371.035 267.598C371.206 268.296 371.668 268.814 372.178 268.814C372.692 268.814 372.894 268.298 372.723 267.596H372.726Z" fill="#2F539B"/>
<path d="M383.832 267.576C383.564 266.47 384.048 265.603 385.075 265.6C386.096 265.6 386.991 266.453 387.264 267.572C387.531 268.678 387.052 269.545 386.021 269.548C384.99 269.548 384.104 268.695 383.832 267.576ZM386.391 267.572C386.223 266.879 385.753 266.356 385.247 266.356C384.739 266.356 384.532 266.864 384.703 267.574C384.873 268.272 385.332 268.789 385.846 268.789C386.359 268.789 386.561 268.274 386.391 267.572Z" fill="#F99746"/>
<path d="M388.961 267.569C388.694 266.463 389.178 265.593 390.204 265.593C391.226 265.593 392.121 266.446 392.393 267.564C392.661 268.67 392.182 269.538 391.151 269.541C390.119 269.541 389.234 268.687 388.961 267.569ZM391.52 267.564C391.352 266.871 390.883 266.349 390.377 266.349C389.869 266.349 389.662 266.857 389.832 267.567C390.003 268.264 390.462 268.782 390.975 268.782C391.489 268.782 391.691 268.269 391.52 267.564Z" fill="#F99746"/>
<path d="M354.78 274.475C354.513 273.369 354.997 272.499 356.023 272.499C357.045 272.499 357.94 273.352 358.212 274.47C358.48 275.577 358.001 276.447 356.969 276.447C355.938 276.447 355.053 275.594 354.78 274.475ZM357.339 274.47C357.171 273.778 356.702 273.255 356.196 273.255C355.687 273.255 355.481 273.763 355.651 274.473C355.821 275.171 356.281 275.688 356.794 275.688C357.307 275.688 357.509 275.175 357.339 274.47Z" fill="#2F539B"/>
<path d="M360.304 273.381L359.672 273.547L359.329 272.859L360.357 272.531H360.936L361.868 276.374H361.029L360.304 273.381Z" fill="#2F539B"/>
<path d="M363.313 274.461C363.045 273.355 363.529 272.487 364.556 272.484C365.577 272.484 366.472 273.338 366.745 274.456C367.012 275.562 366.533 276.43 365.502 276.432C364.47 276.432 363.585 275.579 363.313 274.461ZM365.872 274.456C365.704 273.763 365.234 273.24 364.728 273.24C364.22 273.24 364.013 273.749 364.183 274.458C364.354 275.156 364.813 275.674 365.327 275.674C365.84 275.674 366.042 275.161 365.872 274.456Z" fill="#2F539B"/>
<path d="M368.445 274.453C368.177 273.347 368.661 272.477 369.688 272.477C370.709 272.477 371.604 273.33 371.877 274.449C372.144 275.555 371.665 276.425 370.634 276.425C369.603 276.425 368.717 275.572 368.445 274.453ZM371.004 274.449C370.836 273.756 370.366 273.233 369.861 273.233C369.352 273.233 369.145 273.741 369.316 274.451C369.486 275.149 369.946 275.666 370.459 275.666C370.972 275.666 371.174 275.154 371.004 274.449Z" fill="#2F539B"/>
<path d="M226.604 292.496C226.337 291.39 226.821 290.522 227.847 290.519C228.869 290.519 229.764 291.373 230.036 292.491C230.304 293.597 229.825 294.465 228.793 294.467C227.762 294.467 226.877 293.614 226.604 292.496ZM229.163 292.491C228.995 291.798 228.526 291.275 228.02 291.275C227.512 291.275 227.305 291.783 227.475 292.493C227.645 293.191 228.105 293.709 228.618 293.709C229.132 293.709 229.333 293.193 229.163 292.491Z" fill="#F99746"/>
<path d="M232.128 291.402L231.496 291.567L231.153 290.879L232.182 290.551H232.761L233.692 294.394H232.853L232.128 291.402Z" fill="#F99746"/>
<path d="M216.123 281.77L215.491 281.936L215.148 281.248L216.177 280.92H216.756L217.687 284.763H216.848L216.123 281.77Z" fill="#2F539B"/>
<path d="M219.135 282.852C218.867 281.746 219.351 280.876 220.378 280.876C221.399 280.876 222.294 281.729 222.567 282.847C222.834 283.953 222.355 284.824 221.324 284.824C220.292 284.824 219.407 283.97 219.135 282.852ZM221.694 282.847C221.526 282.155 221.056 281.632 220.55 281.632C220.042 281.632 219.835 282.14 220.005 282.85C220.176 283.547 220.635 284.065 221.149 284.065C221.662 284.065 221.864 283.552 221.694 282.847Z" fill="#2F539B"/>
<path d="M224.264 282.843C223.997 281.736 224.481 280.869 225.507 280.866C226.529 280.866 227.424 281.719 227.696 282.838C227.964 283.944 227.485 284.812 226.454 284.814C225.422 284.814 224.537 283.961 224.264 282.843ZM226.823 282.838C226.655 282.145 226.186 281.622 225.68 281.622C225.172 281.622 224.965 282.13 225.135 282.84C225.305 283.538 225.768 284.056 226.278 284.056C226.792 284.056 226.994 283.54 226.823 282.838Z" fill="#2F539B"/>
<path d="M229.788 281.749L229.156 281.914L228.813 281.226L229.842 280.898H230.421L231.352 284.741H230.513L229.788 281.749Z" fill="#2F539B"/>
<path d="M366.307 281.77L365.675 281.936L365.332 281.248L366.36 280.92H366.939L367.871 284.763H367.032L366.307 281.77Z" fill="#2F539B"/>
<path d="M369.318 282.852C369.051 281.746 369.535 280.876 370.561 280.876C371.583 280.876 372.478 281.729 372.75 282.847C373.018 283.953 372.539 284.824 371.507 284.824C370.476 284.824 369.591 283.97 369.318 282.852ZM371.877 282.847C371.709 282.155 371.24 281.632 370.734 281.632C370.225 281.632 370.019 282.14 370.189 282.85C370.359 283.547 370.819 284.065 371.332 284.065C371.845 284.065 372.047 283.552 371.877 282.847Z" fill="#2F539B"/>
<path d="M374.448 282.843C374.18 281.736 374.664 280.869 375.691 280.866C376.712 280.866 377.607 281.719 377.88 282.838C378.147 283.944 377.668 284.812 376.637 284.814C375.606 284.814 374.72 283.961 374.448 282.843ZM377.007 282.838C376.839 282.145 376.369 281.622 375.863 281.622C375.355 281.622 375.148 282.13 375.319 282.84C375.489 283.538 375.949 284.056 376.462 284.056C376.975 284.056 377.177 283.54 377.007 282.838Z" fill="#2F539B"/>
<path d="M379.972 281.749L379.339 281.914L378.996 281.226L380.025 280.898H380.604L381.536 284.741H380.696L379.972 281.749Z" fill="#2F539B"/>
<path d="M218.463 291.424L217.831 291.589L217.488 290.901L218.517 290.573H219.096L220.027 294.416H219.188L218.463 291.424Z" fill="#2F539B"/>
<path d="M221.472 292.505C221.205 291.399 221.689 290.529 222.715 290.529C223.737 290.529 224.632 291.382 224.904 292.5C225.172 293.607 224.693 294.477 223.661 294.477C222.63 294.477 221.745 293.624 221.472 292.505ZM224.031 292.5C223.863 291.808 223.394 291.285 222.888 291.285C222.379 291.285 222.173 291.793 222.343 292.503C222.511 293.201 222.973 293.718 223.486 293.718C223.999 293.718 224.201 293.205 224.031 292.5Z" fill="#2F539B"/>
<path d="M235.137 292.481C234.869 291.375 235.353 290.505 236.38 290.505C237.401 290.505 238.297 291.358 238.569 292.476C238.836 293.582 238.357 294.45 237.326 294.452C236.295 294.452 235.409 293.599 235.137 292.481ZM237.696 292.476C237.528 291.783 237.058 291.261 236.553 291.261C236.044 291.261 235.837 291.769 236.008 292.479C236.178 293.176 236.638 293.694 237.151 293.694C237.664 293.694 237.866 293.181 237.696 292.476Z" fill="#2F539B"/>
<path d="M240.267 292.471C239.999 291.365 240.483 290.497 241.51 290.495C242.531 290.495 243.426 291.348 243.699 292.466C243.966 293.572 243.487 294.44 242.456 294.443C241.424 294.443 240.539 293.59 240.267 292.471ZM242.825 292.466C242.658 291.774 242.188 291.251 241.682 291.251C241.174 291.251 240.967 291.759 241.137 292.469C241.308 293.167 241.767 293.684 242.281 293.684C242.794 293.684 242.996 293.169 242.825 292.466Z" fill="#2F539B"/>
<path d="M228.582 299.312C228.314 298.206 228.798 297.336 229.825 297.336C230.846 297.336 231.741 298.189 232.014 299.307C232.281 300.413 231.802 301.281 230.771 301.283C229.74 301.283 228.854 300.43 228.582 299.312ZM231.141 299.307C230.973 298.614 230.503 298.092 229.997 298.092C229.489 298.092 229.282 298.6 229.453 299.309C229.623 300.007 230.083 300.525 230.596 300.525C231.109 300.525 231.311 300.01 231.141 299.307Z" fill="#F99746"/>
<path d="M234.106 298.216L233.473 298.381L233.13 297.693L234.159 297.365H234.738L235.67 301.208H234.83L234.106 298.216Z" fill="#F99746"/>
<path d="M223.452 299.319C223.185 298.213 223.669 297.343 224.695 297.343C225.717 297.343 226.612 298.196 226.884 299.314C227.152 300.42 226.672 301.291 225.641 301.291C224.61 301.291 223.725 300.437 223.452 299.319ZM226.011 299.314C225.843 298.621 225.374 298.099 224.868 298.099C224.359 298.099 224.153 298.607 224.323 299.317C224.493 300.014 224.953 300.532 225.466 300.532C225.979 300.532 226.181 300.017 226.011 299.314Z" fill="#2F539B"/>
<path d="M237.117 299.297C236.849 298.191 237.333 297.321 238.36 297.321C239.381 297.321 240.276 298.174 240.549 299.292C240.816 300.398 240.337 301.269 239.306 301.269C238.275 301.269 237.389 300.415 237.117 299.297ZM239.676 299.292C239.508 298.6 239.038 298.077 238.532 298.077C238.024 298.077 237.817 298.585 237.988 299.295C238.158 299.992 238.62 300.51 239.131 300.51C239.644 300.51 239.846 299.997 239.676 299.292Z" fill="#2F539B"/>
<path d="M242.247 299.288C241.979 298.181 242.463 297.314 243.489 297.311C244.511 297.311 245.406 298.164 245.679 299.283C245.946 300.389 245.467 301.257 244.436 301.259C243.404 301.259 242.519 300.406 242.247 299.288ZM244.805 299.283C244.638 298.59 244.168 298.067 243.662 298.067C243.154 298.067 242.947 298.575 243.117 299.285C243.288 299.983 243.747 300.501 244.261 300.501C244.774 300.501 244.976 299.985 244.805 299.283Z" fill="#2F539B"/>
<path d="M259.898 299.312C259.63 298.206 260.114 297.336 261.141 297.336C262.162 297.336 263.057 298.189 263.33 299.307C263.597 300.413 263.118 301.281 262.087 301.283C261.056 301.283 260.17 300.43 259.898 299.312ZM262.457 299.307C262.289 298.614 261.819 298.092 261.314 298.092C260.805 298.092 260.598 298.6 260.769 299.309C260.939 300.007 261.399 300.525 261.912 300.525C262.425 300.525 262.627 300.01 262.457 299.307Z" fill="#F99746"/>
<path d="M265.422 298.216L264.789 298.381L264.446 297.693L265.475 297.365H266.054L266.986 301.208H266.147L265.422 298.216Z" fill="#F99746"/>
<path d="M254.768 299.319C254.501 298.213 254.985 297.343 256.011 297.343C257.033 297.343 257.928 298.196 258.2 299.314C258.468 300.42 257.989 301.291 256.957 301.291C255.926 301.291 255.041 300.437 254.768 299.319ZM257.327 299.314C257.159 298.621 256.69 298.099 256.184 298.099C255.675 298.099 255.469 298.607 255.639 299.317C255.809 300.014 256.271 300.532 256.782 300.532C257.295 300.532 257.497 300.017 257.327 299.314Z" fill="#2F539B"/>
<path d="M268.433 299.297C268.165 298.191 268.649 297.321 269.676 297.321C270.697 297.321 271.592 298.174 271.865 299.292C272.132 300.398 271.653 301.269 270.622 301.269C269.591 301.269 268.705 300.415 268.433 299.297ZM270.992 299.292C270.824 298.6 270.354 298.077 269.849 298.077C269.34 298.077 269.133 298.585 269.304 299.295C269.474 299.992 269.936 300.51 270.447 300.51C270.96 300.51 271.162 299.997 270.992 299.292Z" fill="#2F539B"/>
<path d="M273.563 299.288C273.295 298.181 273.779 297.314 274.806 297.311C275.827 297.311 276.722 298.164 276.995 299.283C277.262 300.389 276.783 301.257 275.752 301.259C274.72 301.259 273.835 300.406 273.563 299.288ZM276.121 299.283C275.954 298.59 275.484 298.067 274.978 298.067C274.47 298.067 274.263 298.575 274.433 299.285C274.604 299.983 275.063 300.501 275.577 300.501C276.09 300.501 276.292 299.985 276.121 299.283Z" fill="#2F539B"/>
<path d="M331.199 299.312C330.931 298.206 331.415 297.336 332.442 297.336C333.463 297.336 334.358 298.189 334.631 299.307C334.898 300.413 334.419 301.281 333.388 301.283C332.357 301.283 331.471 300.43 331.199 299.312ZM333.758 299.307C333.59 298.614 333.12 298.092 332.614 298.092C332.106 298.092 331.899 298.6 332.07 299.309C332.24 300.007 332.7 300.525 333.213 300.525C333.726 300.525 333.928 300.01 333.758 299.307Z" fill="#F99746"/>
<path d="M336.723 298.216L336.09 298.381L335.747 297.693L336.776 297.365H337.355L338.287 301.208H337.447L336.723 298.216Z" fill="#F99746"/>
<path d="M326.067 299.319C325.799 298.213 326.283 297.343 327.31 297.343C328.331 297.343 329.226 298.196 329.499 299.314C329.766 300.42 329.287 301.291 328.256 301.291C327.224 301.291 326.339 300.437 326.067 299.319ZM328.625 299.314C328.458 298.621 327.988 298.099 327.482 298.099C326.974 298.099 326.767 298.607 326.937 299.317C327.108 300.014 327.567 300.532 328.081 300.532C328.594 300.532 328.796 300.017 328.625 299.314Z" fill="#2F539B"/>
<path d="M339.731 299.297C339.464 298.191 339.948 297.321 340.974 297.321C341.996 297.321 342.891 298.174 343.163 299.292C343.431 300.398 342.952 301.269 341.92 301.269C340.889 301.269 340.004 300.415 339.731 299.297ZM342.29 299.292C342.122 298.6 341.653 298.077 341.147 298.077C340.639 298.077 340.432 298.585 340.602 299.295C340.77 299.992 341.232 300.51 341.745 300.51C342.259 300.51 342.46 299.997 342.29 299.292Z" fill="#2F539B"/>
<path d="M344.864 299.288C344.596 298.181 345.08 297.314 346.106 297.311C347.128 297.311 348.023 298.164 348.296 299.283C348.563 300.389 348.084 301.257 347.053 301.259C346.021 301.259 345.136 300.406 344.864 299.288ZM347.422 299.283C347.255 298.59 346.785 298.067 346.279 298.067C345.771 298.067 345.564 298.575 345.734 299.285C345.905 299.983 346.364 300.501 346.878 300.501C347.391 300.501 347.593 299.985 347.422 299.283Z" fill="#2F539B"/>
<path d="M362.515 299.312C362.247 298.206 362.731 297.336 363.758 297.336C364.779 297.336 365.674 298.189 365.947 299.307C366.214 300.413 365.735 301.281 364.704 301.283C363.673 301.283 362.787 300.43 362.515 299.312ZM365.074 299.307C364.906 298.614 364.436 298.092 363.931 298.092C363.422 298.092 363.215 298.6 363.386 299.309C363.554 300.007 364.016 300.525 364.529 300.525C365.042 300.525 365.244 300.01 365.074 299.307Z" fill="#F99746"/>
<path d="M368.039 298.216L367.406 298.381L367.063 297.693L368.092 297.365H368.671L369.603 301.208H368.764L368.039 298.216Z" fill="#F99746"/>
<path d="M357.385 299.319C357.118 298.213 357.602 297.343 358.628 297.343C359.65 297.343 360.545 298.196 360.817 299.314C361.085 300.42 360.606 301.291 359.574 301.291C358.543 301.291 357.658 300.437 357.385 299.319ZM359.944 299.314C359.776 298.621 359.307 298.099 358.801 298.099C358.292 298.099 358.086 298.607 358.256 299.317C358.426 300.014 358.888 300.532 359.399 300.532C359.912 300.532 360.114 300.017 359.944 299.314Z" fill="#2F539B"/>
<path d="M371.05 299.297C370.782 298.191 371.266 297.321 372.293 297.321C373.314 297.321 374.209 298.174 374.482 299.292C374.749 300.398 374.27 301.269 373.239 301.269C372.208 301.269 371.322 300.415 371.05 299.297ZM373.609 299.292C373.441 298.6 372.971 298.077 372.463 298.077C371.955 298.077 371.748 298.585 371.918 299.295C372.088 299.992 372.548 300.51 373.061 300.51C373.575 300.51 373.777 299.997 373.606 299.292H373.609Z" fill="#2F539B"/>
<path d="M376.18 299.288C375.912 298.181 376.396 297.314 377.423 297.311C378.444 297.311 379.339 298.164 379.612 299.283C379.879 300.389 379.4 301.257 378.369 301.259C377.337 301.259 376.452 300.406 376.18 299.288ZM378.738 299.283C378.571 298.59 378.101 298.067 377.595 298.067C377.087 298.067 376.88 298.575 377.05 299.285C377.221 299.983 377.68 300.501 378.194 300.501C378.707 300.501 378.909 299.985 378.738 299.283Z" fill="#2F539B"/>
<path d="M245.399 292.464C245.131 291.358 245.615 290.488 246.642 290.488C247.663 290.488 248.558 291.341 248.831 292.459C249.098 293.565 248.619 294.433 247.588 294.435C246.557 294.435 245.671 293.582 245.399 292.464ZM247.958 292.459C247.79 291.766 247.32 291.244 246.814 291.244C246.306 291.244 246.099 291.752 246.27 292.462C246.44 293.159 246.902 293.677 247.413 293.677C247.926 293.677 248.128 293.164 247.958 292.459Z" fill="#2F539B"/>
<path d="M250.529 292.454C250.261 291.348 250.745 290.478 251.772 290.478C252.793 290.478 253.688 291.331 253.961 292.449C254.228 293.555 253.749 294.426 252.718 294.426C251.686 294.426 250.801 293.572 250.529 292.454ZM253.087 292.449C252.92 291.757 252.45 291.234 251.944 291.234C251.436 291.234 251.229 291.742 251.399 292.452C251.57 293.15 252.032 293.667 252.543 293.667C253.056 293.667 253.258 293.154 253.087 292.449Z" fill="#2F539B"/>
<path d="M344.314 292.464C344.046 291.358 344.53 290.488 345.557 290.488C346.578 290.488 347.473 291.341 347.746 292.459C348.013 293.565 347.534 294.433 346.503 294.435C345.472 294.435 344.586 293.582 344.314 292.464ZM346.873 292.459C346.705 291.766 346.235 291.244 345.729 291.244C345.221 291.244 345.014 291.752 345.185 292.462C345.355 293.159 345.815 293.677 346.328 293.677C346.841 293.677 347.043 293.164 346.873 292.459Z" fill="#2F539B"/>
<path d="M349.446 292.454C349.179 291.348 349.663 290.478 350.689 290.478C351.711 290.478 352.606 291.331 352.878 292.449C353.146 293.555 352.666 294.426 351.635 294.426C350.604 294.426 349.718 293.572 349.446 292.454ZM352.005 292.449C351.837 291.757 351.368 291.234 350.862 291.234C350.353 291.234 350.147 291.742 350.317 292.452C350.487 293.15 350.947 293.667 351.46 293.667C351.973 293.667 352.175 293.154 352.005 292.449Z" fill="#2F539B"/>
</g>
<defs>
<clipPath id="clip0_11_311">
<rect width="635" height="397" fill="white"/>
</clipPath>
</defs>
</svg>
