<svg width="18" height="18" viewBox="0 0 18 18" fill="none" xmlns="http://www.w3.org/2000/svg">
<path d="M8.32732 15.1118C10.6406 14.7098 12.5507 14.3805 12.5732 14.3742L12.612 14.3647L10.4277 11.8161C9.22748 10.4136 8.24344 9.26119 8.24344 9.25486C8.24344 9.2422 10.4987 3.15094 10.5116 3.12878C10.5148 3.12245 12.0506 5.72168 14.2316 9.42899C16.2739 12.902 17.9549 15.764 17.971 15.7894L18 15.8368H11.0601H4.12012L8.3241 15.1087L8.32732 15.1118Z" fill="#FEFEFE"/>
<path d="M0 14.333C0 14.333 1.02922 12.5759 2.28751 10.4389L4.57501 6.55115L7.24001 4.35716C8.70156 3.15094 9.905 2.16 9.90823 2.16C9.91145 2.16 9.89532 2.20433 9.86628 2.26448C9.83725 2.32463 8.53701 5.06316 6.97222 8.35257L4.12977 14.333H2.06489C0.929199 14.3362 0 14.333 0 14.333Z" fill="#FEFEFE"/>
</svg>
