<svg width="18" height="18" viewBox="0 0 18 18" fill="none" xmlns="http://www.w3.org/2000/svg">
<g clip-path="url(#clip0_379_432)">
<path d="M0 0H8.56286C8.56286 2.85429 8.56286 5.70857 8.56286 8.56286H0V0Z" fill="#DC3545"/>
<path d="M9.43714 0H18C18 2.85429 18 5.70857 18 8.56286C15.1457 8.56286 12.2914 8.56286 9.43714 8.56286C9.43714 5.70857 9.43714 2.85429 9.43714 0Z" fill="#80BA01"/>
<path d="M0 9.43714C2.85429 9.43714 5.70857 9.43714 8.56286 9.43714C8.56286 12.2914 8.56286 15.1457 8.56286 18H0V9.43714Z" fill="#02A4EF"/>
<path d="M9.43714 9.43714C12.2914 9.43714 15.1457 9.43714 18 9.43714V18H9.43714C9.43714 15.1457 9.43714 12.2914 9.43714 9.43714Z" fill="#FFB902"/>
</g>
<defs>
<clipPath id="clip0_379_432">
<rect width="18" height="18" fill="white"/>
</clipPath>
</defs>
</svg>
