<svg width="180" height="29" viewBox="0 0 180 29" fill="none" xmlns="http://www.w3.org/2000/svg">
<g clip-path="url(#clip0_15_612)">
<path fill-rule="evenodd" clip-rule="evenodd" d="M15.8954 13.2718C15.9591 19.2901 17.3797 24.2254 22.9403 28.7998H30.9129C24.6074 24.5357 19.4206 19.4057 15.8954 13.2718Z" fill="white"/>
<path fill-rule="evenodd" clip-rule="evenodd" d="M16.4631 5.85753C16.9256 1.537 18.5262 0.135369 20.6059 0C36.6148 0.270738 35.8089 14.8116 19.2323 14.9752C31.5056 12.8431 24.5409 0.267918 16.4603 5.85753" fill="#FCB614"/>
<path fill-rule="evenodd" clip-rule="evenodd" d="M15.6903 5.85753C15.2279 1.537 13.6273 0.135369 11.5448 0C-2.82196 0.242536 -3.64442 11.9773 8.31866 14.5014C-3.64442 17.0255 -2.82196 28.7575 11.5448 29.0028C13.6245 28.8675 15.2279 27.4658 15.6903 23.1453C8.16635 28.3485 1.09373 17.4993 11.3925 14.5381C0.980194 11.1454 8.34912 0.781192 15.6903 5.85753Z" fill="#F48120"/>
<path d="M51.5603 23.2949C51.0286 22.5983 50.472 21.8763 49.8932 21.129C49.6606 20.8329 49.4363 20.5311 49.2092 20.2293C50.4305 19.6033 51.4052 18.7544 52.1252 17.6799C52.8923 16.5377 53.2772 15.2432 53.2772 13.7993C53.2772 11.4642 52.4741 9.61697 50.8652 8.25482C49.2563 6.89549 46.8582 6.21582 43.668 6.21582C42.5326 6.21582 41.4388 6.27504 40.3892 6.39631C39.3369 6.51758 38.4231 6.72063 37.6421 7.01111C37.2185 7.15494 36.8751 7.36082 36.6148 7.62591C36.3545 7.89101 36.2243 8.252 36.2243 8.70887V26.3322C36.2243 27.2967 36.4431 27.9708 36.8806 28.3543C37.3181 28.7378 38.0686 28.9324 39.132 28.9324C39.6277 28.9324 40.1123 28.9014 40.5858 28.8422C41.0594 28.783 41.4 28.7153 41.6132 28.6448V21.3151H44.2163L47.7471 26.8399C48.1486 27.4885 48.5806 28.0131 49.0403 28.4107C49.5028 28.8084 50.1702 29.0058 51.0425 29.0058C51.7265 29.0058 52.3412 28.8084 52.8868 28.4107C53.4295 28.0131 53.8089 27.4547 54.0222 26.7299C53.7618 26.3209 53.4185 25.8218 52.9948 25.2295C52.5683 24.6401 52.0892 23.9971 51.5575 23.2977L51.5603 23.2949ZM41.5772 10.8353C41.8846 10.762 42.2031 10.7168 42.5354 10.6915C42.8649 10.6689 43.2332 10.6548 43.6348 10.6548C45.0526 10.6548 46.1049 10.9255 46.7917 11.467C47.4757 12.0085 47.8191 12.7981 47.8191 13.8331C47.8191 14.8682 47.4591 15.6945 46.7363 16.236C46.0135 16.7774 45.0637 17.0482 43.8812 17.0482H41.5772V10.8353Z" fill="white"/>
<path d="M71.8255 7.43967C70.3218 6.62182 68.5634 6.21289 66.5501 6.21289C65.1766 6.21289 63.8557 6.43569 62.5874 6.88128C61.3191 7.32686 60.1781 8.00371 59.1729 8.91181C58.1649 9.81709 57.3618 10.9705 56.7637 12.3665C56.1655 13.7625 55.8665 15.4152 55.8665 17.316C55.8665 19.9021 56.376 22.0595 57.3978 23.7827C58.4197 25.5058 59.8292 26.8003 61.6237 27.6632C63.4181 28.5262 65.4397 28.9577 67.6883 28.9577C69.2363 28.9577 70.6154 28.8082 71.8255 28.5121C73.0357 28.216 73.9855 27.7704 74.6723 27.1754C75.3591 26.5803 75.7025 25.8386 75.7025 24.9446C75.7025 24.4087 75.564 23.9039 75.2871 23.4273C75.0101 22.9535 74.6529 22.5784 74.2154 22.3133C73.5425 22.6997 72.6674 23.072 71.5874 23.4273C70.5074 23.7855 69.3554 23.9632 68.1286 23.9632C66.6111 23.9632 65.2957 23.6135 64.188 22.914C63.3018 22.3557 62.6898 21.4955 62.3437 20.3392L73.8194 18.6133C74.6945 18.4948 75.3812 18.1959 75.8769 17.7221C76.3726 17.2455 76.6218 16.5489 76.6218 15.6267C76.6218 13.7851 76.1981 12.1635 75.3508 10.7647C74.5034 9.36868 73.3292 8.26035 71.8255 7.44249V7.43967ZM61.9394 15.8777C62.0612 14.4366 62.5154 13.3 63.3101 12.4793C64.1852 11.5712 65.2791 11.12 66.5945 11.12C67.9098 11.12 68.7988 11.4782 69.4412 12.1917C70.0837 12.9052 70.4326 13.6779 70.4935 14.5099L61.9421 15.8805L61.9394 15.8777Z" fill="white"/>
<path d="M107.928 7.01664C106.615 6.48081 105.198 6.21289 103.68 6.21289C101.899 6.21289 100.396 6.48927 99.1689 7.03639C98.3215 7.41711 97.5406 7.85424 96.8178 8.34213C96.0618 7.71323 95.2117 7.22534 94.2646 6.88128C93.0378 6.43569 91.7252 6.21289 90.324 6.21289C88.8065 6.21289 87.3471 6.42158 85.9458 6.83615C84.5446 7.25354 83.3622 7.80066 82.3985 8.48596C81.8142 8.87233 81.3711 9.30946 81.0637 9.80299C80.7591 10.2937 80.604 10.9113 80.604 11.653V25.5227C80.604 26.6818 80.8892 27.4828 81.4569 27.9312C82.0274 28.3768 82.9246 28.5996 84.1486 28.5996C84.7606 28.5996 85.3311 28.5629 85.8572 28.4896C86.3834 28.4162 86.7905 28.3345 87.084 28.2442V12.3242C87.4357 12.1184 87.8649 11.9153 88.3772 11.7235C88.8868 11.5318 89.4655 11.4331 90.108 11.4331C90.9831 11.4331 91.7142 11.6728 92.2985 12.1466C92.8828 12.6232 93.1735 13.3649 93.1735 14.3773V25.5255C93.1735 26.6846 93.4588 27.4856 94.0265 27.934C94.5969 28.3796 95.508 28.6024 96.7625 28.6024C97.3745 28.6024 97.9449 28.5657 98.4711 28.4924C98.9972 28.4191 99.4043 28.3373 99.6978 28.247V13.5313C99.6978 13.2239 99.6702 12.9165 99.6148 12.6091C99.9831 12.3299 100.396 12.0789 100.858 11.8589C101.456 11.5769 102.09 11.4359 102.763 11.4359C103.666 11.4359 104.397 11.6756 104.954 12.1494C105.508 12.626 105.787 13.3677 105.787 14.3802V25.5284C105.787 26.6875 106.07 27.4884 106.64 27.9368C107.211 28.3824 108.122 28.6052 109.376 28.6052C109.988 28.6052 110.559 28.5685 111.085 28.4952C111.611 28.4219 112.004 28.3401 112.267 28.2498V14.2025C112.267 12.2707 111.874 10.7252 111.085 9.56609C110.296 8.407 109.246 7.55812 107.931 7.0251L107.928 7.01664Z" fill="white"/>
<path d="M133.017 8.15318C131.206 6.85871 128.783 6.21289 125.748 6.21289C124.696 6.21289 123.61 6.29468 122.486 6.45825C121.362 6.62182 120.376 6.88128 119.531 7.23944C118.188 7.80348 117.518 8.71158 117.518 9.96092C117.518 10.4968 117.642 11.0072 117.889 11.4979C118.138 11.9886 118.437 12.3524 118.786 12.5922C119.634 12.234 120.589 11.9238 121.655 11.6559C122.721 11.3879 123.807 11.2554 124.917 11.2554C126.346 11.2554 127.448 11.4782 128.224 11.9238C128.996 12.3694 129.384 13.097 129.384 14.1066V14.6424L123.56 15.2657C121.137 15.5026 119.312 16.1653 118.086 17.2511C116.859 18.3369 116.247 19.8908 116.247 21.9101C116.247 24.2593 117.13 26.0275 118.897 27.2177C120.664 28.405 123.034 29.0028 126.014 29.0028C127.678 29.0028 129.16 28.8477 130.458 28.5347C131.757 28.2216 132.846 27.7986 133.721 27.2628C134.305 26.9356 134.787 26.5436 135.166 26.0811C135.546 25.6214 135.734 25.0179 135.734 24.2762V14.1545C135.734 11.45 134.828 9.45047 133.02 8.156L133.017 8.15318ZM129.428 23.3822C129.135 23.5599 128.661 23.7178 128.005 23.8504C127.349 23.9829 126.684 24.0506 126.011 24.0506C124.784 24.0506 123.895 23.8363 123.339 23.4048C122.785 22.9733 122.505 22.4008 122.505 21.6873C122.505 20.9738 122.796 20.4407 123.38 20.0826C123.965 19.7272 124.751 19.5185 125.745 19.4565L129.423 19.1012V23.3822H129.428Z" fill="white"/>
<path d="M157.187 23.1594H147.83L156.09 12.9024C156.47 12.4258 156.783 11.9379 157.032 11.4302C157.278 10.9254 157.403 10.4065 157.403 9.87067C157.403 9.24741 157.278 8.68901 157.032 8.1983C156.783 7.70758 156.456 7.28456 156.046 6.92639H142.208C141.538 6.92639 140.998 7.12663 140.588 7.52709C140.178 7.92756 139.976 8.5903 139.976 9.5125C139.976 9.98912 140.048 10.4573 140.195 10.917C140.342 11.3766 140.486 11.7574 140.633 12.0535H149.536L141.07 22.3105C140.721 22.7561 140.419 23.2412 140.173 23.7601C139.924 24.2818 139.799 24.8092 139.799 25.3422C139.799 25.9373 139.915 26.4872 140.151 26.992C140.383 27.4968 140.705 27.9283 141.114 28.2865H155.653C156.323 28.2865 156.858 28.0806 157.251 27.6632C157.644 27.2487 157.841 26.5916 157.841 25.7004C157.841 25.1646 157.774 24.6682 157.644 24.2057C157.514 23.746 157.362 23.3963 157.184 23.1594H157.187Z" fill="white"/>
<path d="M177.286 8.15318C175.475 6.85871 173.052 6.21289 170.017 6.21289C168.965 6.21289 167.879 6.29468 166.755 6.45825C165.63 6.62182 164.645 6.88128 163.8 7.23944C162.457 7.80348 161.787 8.71158 161.787 9.96092C161.787 10.4968 161.911 11.0072 162.158 11.4979C162.407 11.9886 162.706 12.3524 163.055 12.5922C163.902 12.234 164.858 11.9238 165.924 11.6559C166.99 11.3879 168.076 11.2554 169.186 11.2554C170.615 11.2554 171.717 11.4782 172.493 11.9238C173.265 12.3694 173.653 13.097 173.653 14.1066V14.6424L167.829 15.2657C165.406 15.5026 163.581 16.1653 162.354 17.2511C161.128 18.3369 160.516 19.8908 160.516 21.9101C160.516 24.2593 161.399 26.0275 163.166 27.2177C164.933 28.405 167.303 29.0028 170.283 29.0028C171.947 29.0028 173.429 28.8477 174.727 28.5347C176.026 28.2216 177.114 27.7986 177.99 27.2628C178.574 26.9356 179.056 26.5436 179.435 26.0811C179.814 25.6214 180.003 25.0179 180.003 24.2762V14.1545C180.003 11.45 179.097 9.45047 177.289 8.156L177.286 8.15318ZM173.697 23.3822C173.404 23.5599 172.93 23.7178 172.274 23.8504C171.618 23.9829 170.953 24.0506 170.28 24.0506C169.053 24.0506 168.164 23.8363 167.608 23.4048C167.054 22.9733 166.774 22.4008 166.774 21.6873C166.774 20.9738 167.065 20.4407 167.649 20.0826C168.234 19.7272 169.02 19.5185 170.014 19.4565L173.692 19.1012V23.3822H173.697Z" fill="white"/>
</g>
<defs>
<clipPath id="clip0_15_612">
<rect width="180" height="29" fill="white"/>
</clipPath>
</defs>
</svg>
