<svg xmlns="http://www.w3.org/2000/svg" xmlns:xlink="http://www.w3.org/1999/xlink" width="500" zoomAndPan="magnify" viewBox="0 0 375 374.999991" height="500" preserveAspectRatio="xMidYMid meet" version="1.0"><path fill="#7001fd" d="M 133.425781 67.839844 C 117.355469 89.054688 106.769531 115.800781 103.84375 146.566406 C 94.929688 240.289062 160.421875 335.785156 250.097656 359.808594 C 254.621094 361.023438 259.113281 362.019531 263.578125 362.824219 C 188.292969 335.585938 154.671875 256.40625 188.445312 179.945312 C 191.734375 172.496094 195.554688 165.335938 199.835938 158.488281 C 197.234375 158.058594 194.628906 157.5 192.027344 156.804688 C 152.335938 146.167969 127.617188 107.53125 133.425781 67.839844 Z M 133.425781 67.839844 " fill-opacity="1" fill-rule="evenodd"/><path fill="#0a2a5a" d="M 223.089844 25.882812 C 196.878906 18.859375 169.921875 34.417969 162.898438 60.632812 C 155.875 86.84375 171.4375 113.796875 197.648438 120.820312 C 223.863281 127.84375 250.816406 112.285156 257.839844 86.070312 C 264.863281 59.859375 249.300781 32.90625 223.089844 25.882812 Z M 223.089844 25.882812 " fill-opacity="1" fill-rule="evenodd"/></svg>